<?xml version="1.0" encoding="utf-8"?>
<!-- Generator: Adobe Illustrator 23.1.0, SVG Export Plug-In . SVG Version: 6.00 Build 0)  -->
<svg version="1.1" id="Livello_1" xmlns="http://www.w3.org/2000/svg" xmlns:xlink="http://www.w3.org/1999/xlink" x="0px" y="0px"
	 viewBox="0 0 595.3 595.3" style="enable-background:new 0 0 595.3 595.3;" xml:space="preserve">
<style type="text/css">
	.st0{fill:#2B170D;}
</style>
<g>
	<g>
		<path class="st0" d="M-0.5,151.9c2.3-39.8,16-74,42.3-102.9c11.5-12.6,23.8-24.3,35.9-36.3c11.5-11.4,24.2-12.6,35.8-1.2
			C148.8,46,183.8,80.7,218.2,116c11.2,11.5,9.2,24.7-1.9,36c-15.6,15.9-31.3,31.8-47.2,47.4c-33.9,33.3-35.5,54.5-7.1,91.8
			c44.4,58.4,97.2,108.2,156.3,151.4c25,18.3,50.6,16.8,73.3-4.9c17.4-16.6,33.7-34.3,50.7-51.4c17.5-17.5,27.8-18.3,44.9-1.5
			c32.7,32,65,64.5,97.1,97.2c14.3,14.6,13.7,26.2-0.2,41.3c-32.9,35.8-69.1,68-120.6,67.6c-28.6-0.2-58.5-6.2-85.5-15.9
			c-108.5-38.9-194.4-109.8-267.2-197.2C67,325.2,31.5,267.2,10.5,201.4C5.4,185.3,3.1,168.4-0.5,151.9z"/>
	</g>
</g>
</svg>
