<?xml version="1.0" encoding="utf-8"?>
<!-- Generator: Adobe Illustrator 23.1.0, SVG Export Plug-In . SVG Version: 6.00 Build 0)  -->
<svg version="1.1" id="Livello_1" xmlns="http://www.w3.org/2000/svg" xmlns:xlink="http://www.w3.org/1999/xlink" x="0px" y="0px"
	 viewBox="0 0 595.3 595.3" style="enable-background:new 0 0 595.3 595.3;" xml:space="preserve">
<style type="text/css">
	.st0{fill:#2B170D;}
</style>
<g>
	<path class="st0" d="M386.8,249.8c4.6-5.3,4.1-10.9,4.6-15.9c7.8-74.2,15.6-148.5,23-222.8c0.9-9.4,4-11.4,13.2-10.3
		c42.8,5.1,85.7,9.6,128.6,13.5c8.6,0.8,10.1,3.8,9.3,11.5c-9,82.4-17.9,164.9-26.6,247.3c-4.3,40.8-8.4,81.7-12.5,122.5
		c-0.6,5.9-2,11.3-4.4,16.7c-26,58.3-52.1,116.5-77.6,175c-3.3,7.5-6.5,9.7-14.7,7.9C311.8,569.9,193.8,544.9,75.8,520
		c-7.9-1.7-11.4-5.2-13.1-13.5C52,453.7,40.7,401,29,348.5c-2-8.8,2-9.4,8.5-10.7c64-13.5,128-27.6,192.1-40.9
		c8.4-1.8,10.6-3.9,8.7-12.7c-14.2-65.2-27.9-130.5-41.7-195.7c-3.3-15.7-3.3-15.6,12.2-18.9c40.1-8.5,80.3-16.8,120.3-26
		c9.6-2.2,13.2,0,15.1,9.4c13.2,64.5,26.8,129,40.3,193.4C384.6,247,385.3,247.6,386.8,249.8z M362.2,378.3
		c-0.6,14.5,8.6,23.3,25.2,24.3c12.9,0.7,23.2-9.8,24.1-24.6c0.8-13.1-10.6-24.9-24.8-25.5C374,351.9,362.8,363.7,362.2,378.3z
		 M256.3,361.9c-0.3,16.2,8.3,24.6,25.3,25.1c13.4,0.4,24.2-10.2,24.6-24c0.3-12.5-11.1-23.9-24.5-24.4
		C265.5,338,256.5,346.2,256.3,361.9z"/>
</g>
</svg>
