<?xml version="1.0" encoding="utf-8"?>
<!-- Generator: Adobe Illustrator 23.1.0, SVG Export Plug-In . SVG Version: 6.00 Build 0)  -->
<svg version="1.1" id="Livello_1" xmlns="http://www.w3.org/2000/svg" xmlns:xlink="http://www.w3.org/1999/xlink" x="0px" y="0px"
	 viewBox="0 0 595.3 595.3" style="enable-background:new 0 0 595.3 595.3;" xml:space="preserve">
<style type="text/css">
	.st0{fill:#2B170D;}
</style>
<g>
	<path class="st0" d="M31.3,552c2.7-22.6,6-49.9,9.3-77.1c5.3-43.6,10.5-87.3,15.9-130.9c5.4-44.1,10.8-88.2,16.2-132.4
		c4.7-38.4,9.1-76.9,13.8-115.3C89.1,75,91,53.5,95.4,32.6c4.5-21.4,19.1-32.4,41.1-32c16.1,0.3,32.3,2.8,48.3,5.3
		c70.3,10.8,140.6,22,210.9,33.1c42.7,6.7,85.4,13,128,20.5c9.5,1.7,19.3,5.9,27.2,11.4c17.7,12.2,22.2,34.2,12.1,53.4
		c-49.7,95.2-99.4,190.4-149.1,285.6c-17.7,33.9-36.1,67.4-52.9,101.7c-13.7,28-35.8,40.6-65.8,45.2c-56.3,8.6-112.2,19.2-168.3,29
		c-17.5,3-35,6-52.4,9.1C45.4,599.8,30,586.4,31.3,552z M172.8,236.7c2.3,0.3,3.9,0.7,5.6,0.7c73.7,0,147.5,0.1,221.2-0.1
		c15.6,0,27.7-9.5,31.8-24.8c2.9-10.8,5-21.9,7.3-32.9c2.6-12.1,5-24.2,7.7-37.4c-4,0-6.9,0-9.9,0c-44,0-88,0-132,0
		c-27.5,0-55-0.1-82.5,0c-18.9,0.1-30.3,9.1-35.2,27.4c-0.8,2.9-1.3,5.8-1.9,8.8C181,197.7,176.9,217,172.8,236.7z M376.7,254.8
		c-2.5-0.5-3.5-0.9-4.4-0.9c-61.2,0-122.4-0.2-183.6,0.2c-17.3,0.1-28.8,10.7-32.6,27.7c-2.4,10.7-4.8,21.4-7.1,32.2
		c-2.4,11.4-4.7,22.8-7.2,35.2c3.7,0,6.1,0,8.5,0c57.7,0,115.4,0,173.1,0c3.5,0,7-0.2,10.5-0.7c12.7-1.9,22.7-8.6,26-20.8
		C366.3,303.8,371,279.5,376.7,254.8z M110.4,462.9c27.6,0,53.8,0.4,79.9-0.2c16.1-0.3,27.2-9.8,31.1-25.5
		c3.6-14.3,6.4-28.7,9.4-43.1c1.8-8.4,3.5-16.8,5.4-26.3c-10.9,0-20.6,0-30.3,0c-15.5,0-31-0.2-46.5,0.1
		c-19.2,0.3-31.3,10.6-35.2,29.3c-1.1,5.1-2.2,10.2-3.3,15.4C117.6,428.9,114.2,445.2,110.4,462.9z"/>
</g>
</svg>
