<?xml version="1.0" encoding="utf-8"?>
<!-- Generator: Adobe Illustrator 23.1.0, SVG Export Plug-In . SVG Version: 6.00 Build 0)  -->
<svg version="1.1" id="Livello_1" xmlns="http://www.w3.org/2000/svg" xmlns:xlink="http://www.w3.org/1999/xlink" x="0px" y="0px"
	 viewBox="0 0 1920 1080" style="enable-background:new 0 0 1920 1080;" xml:space="preserve">
<style type="text/css">
	.st0{fill:#381D09;}
</style>
<g>
	<path class="st0" d="M1023.8,73.4v23.5h-5.4v-9.6h-10.7v9.6h-5.4V73.4h5.4v9.3h10.7v-9.3H1023.8z"/>
	<path class="st0" d="M1034.2,95.7c-2-1.1-3.5-2.5-4.6-4.3c-1.1-1.8-1.7-3.9-1.7-6.2c0-2.3,0.6-4.4,1.7-6.2c1.1-1.8,2.6-3.3,4.6-4.3
		c2-1.1,4.2-1.6,6.6-1.6s4.6,0.5,6.6,1.6c1.9,1.1,3.5,2.5,4.6,4.3c1.1,1.8,1.7,3.9,1.7,6.2c0,2.3-0.6,4.4-1.7,6.2
		c-1.1,1.8-2.6,3.3-4.6,4.3c-1.9,1.1-4.1,1.6-6.6,1.6S1036.1,96.8,1034.2,95.7z M1044.5,91.7c1.1-0.6,2-1.5,2.6-2.7s1-2.4,1-3.9
		c0-1.5-0.3-2.7-1-3.9s-1.5-2-2.6-2.7c-1.1-0.6-2.4-1-3.8-1c-1.4,0-2.6,0.3-3.8,1c-1.1,0.6-2,1.5-2.6,2.7c-0.6,1.1-1,2.4-1,3.9
		c0,1.5,0.3,2.7,1,3.9c0.6,1.1,1.5,2,2.6,2.7s2.4,1,3.8,1C1042.2,92.7,1043.4,92.4,1044.5,91.7z"/>
	<path class="st0" d="M1079.1,96.9l0-14.1l-6.9,11.6h-2.4l-6.9-11.3v13.8h-5.1V73.4h4.5L1071,88l8.7-14.6h4.5l0.1,23.5H1079.1z"/>
	<path class="st0" d="M1107.9,92.6v4.4h-18.2V73.4h17.7v4.4h-12.3v5.1h10.9v4.2h-10.9v5.4H1107.9z"/>
</g>
<g>
	<g>
		<g>
			<path class="st0" d="M609.9,659.5c-73.9,0-134-60.1-134-134s60.1-134,134-134s134,60.1,134,134S683.8,659.5,609.9,659.5z
				 M609.9,399.5c-69.5,0-126,56.5-126,126s56.5,126,126,126s126-56.5,126-126S679.4,399.5,609.9,399.5z"/>
		</g>
	</g>
	<g>
		<g>
			<path class="st0" d="M611.9,536.5c-0.5,0-1-0.1-1.5-0.3c-1.5-0.6-2.5-2.1-2.5-3.7v-100c0-2.2,1.8-4,4-4s4,1.8,4,4v90.3l33.2-33.2
				c1.6-1.6,4.1-1.6,5.7,0c1.6,1.6,1.6,4.1,0,5.7l-40,40C614,536.1,613,536.5,611.9,536.5z"/>
		</g>
	</g>
</g>
<g>
	<g>
		<path class="st0" d="M1005.1,232.2h4.7v22.3h-4.7V232.2z"/>
		<path class="st0" d="M1030.4,238.3v16.1h-4.4v-1.9c-0.6,0.7-1.4,1.2-2.2,1.6c-0.9,0.4-1.8,0.6-2.8,0.6c-2.1,0-3.8-0.6-5-1.8
			c-1.2-1.2-1.9-3-1.9-5.4v-9.1h4.7v8.4c0,2.6,1.1,3.9,3.3,3.9c1.1,0,2-0.4,2.7-1.1s1-1.8,1-3.3v-8H1030.4z"/>
		<path class="st0" d="M1049.4,239.9c1.2,1.2,1.8,3,1.8,5.3v9.2h-4.7V246c0-1.3-0.3-2.2-0.8-2.9c-0.6-0.6-1.4-0.9-2.4-0.9
			c-1.2,0-2.1,0.4-2.8,1.1s-1,1.8-1,3.3v8h-4.7v-16.1h4.5v1.9c0.6-0.7,1.4-1.2,2.3-1.6c0.9-0.4,1.9-0.6,3-0.6
			C1046.6,238.1,1048.2,238.7,1049.4,239.9z"/>
		<path class="st0" d="M1071.4,247.7h-12.2c0.2,1,0.7,1.8,1.6,2.4c0.8,0.6,1.8,0.9,3.1,0.9c0.8,0,1.6-0.1,2.2-0.4
			c0.6-0.3,1.3-0.6,1.8-1.2l2.5,2.7c-1.5,1.7-3.7,2.6-6.7,2.6c-1.8,0-3.4-0.4-4.8-1.1c-1.4-0.7-2.5-1.7-3.2-3
			c-0.8-1.3-1.1-2.7-1.1-4.3c0-1.6,0.4-3,1.1-4.3c0.8-1.3,1.8-2.3,3.1-3s2.8-1.1,4.4-1.1c1.6,0,3,0.3,4.3,1c1.3,0.7,2.3,1.7,3,2.9
			c0.7,1.3,1.1,2.7,1.1,4.4C1071.5,246.5,1071.4,247,1071.4,247.7z M1060.4,242.5c-0.7,0.6-1.2,1.4-1.3,2.5h7.9
			c-0.2-1-0.6-1.8-1.3-2.4c-0.7-0.6-1.6-0.9-2.6-0.9C1062,241.6,1061.1,241.9,1060.4,242.5z"/>
		<path class="st0" d="M1091,232.2v22.3h-4.5v-1.9c-1.2,1.4-2.8,2.1-5,2.1c-1.5,0-2.9-0.3-4.1-1c-1.2-0.7-2.2-1.7-2.9-2.9
			c-0.7-1.3-1.1-2.7-1.1-4.4s0.4-3.1,1.1-4.4c0.7-1.3,1.7-2.2,2.9-2.9c1.2-0.7,2.6-1,4.1-1c2.1,0,3.7,0.6,4.8,1.9v-7.8H1091z
			 M1085.3,249.7c0.8-0.8,1.2-1.9,1.2-3.3c0-1.4-0.4-2.4-1.2-3.3c-0.8-0.8-1.8-1.2-2.9-1.2c-1.2,0-2.2,0.4-3,1.2
			c-0.8,0.8-1.2,1.9-1.2,3.3c0,1.4,0.4,2.4,1.2,3.3c0.8,0.8,1.8,1.2,3,1.2C1083.5,250.9,1084.5,250.5,1085.3,249.7z"/>
		<path class="st0" d="M1091.3,232h5l4.1,4.3h-3.7L1091.3,232z M1095.3,238.3h4.7v16.1h-4.7V238.3z"/>
	</g>
	<g>
		<g>
			<g>
				<path class="st0" d="M1349.5,253.9v5.6h-26.5v-4.5l14.3-13.5c1.6-1.5,2.7-2.9,3.3-4c0.6-1.1,0.8-2.3,0.8-3.4
					c0-1.7-0.6-3-1.7-3.8c-1.1-0.9-2.8-1.3-5-1.3c-3.7,0-6.5,1.2-8.4,3.7l-4.7-3.6c1.4-1.9,3.3-3.3,5.7-4.4c2.4-1,5-1.6,8-1.6
					c3.9,0,7,0.9,9.3,2.8c2.3,1.8,3.5,4.4,3.5,7.5c0,1.9-0.4,3.8-1.2,5.5c-0.8,1.7-2.4,3.7-4.7,5.8l-9.6,9.1H1349.5z"/>
				<path class="st0" d="M1381.8,253.9v5.6h-26.5v-4.5l14.3-13.5c1.6-1.5,2.7-2.9,3.3-4c0.6-1.1,0.8-2.3,0.8-3.4
					c0-1.7-0.6-3-1.7-3.8c-1.1-0.9-2.8-1.3-5-1.3c-3.7,0-6.5,1.2-8.4,3.7l-4.7-3.6c1.4-1.9,3.3-3.3,5.7-4.4c2.4-1,5-1.6,8-1.6
					c3.9,0,7,0.9,9.3,2.8c2.3,1.8,3.5,4.4,3.5,7.5c0,1.9-0.4,3.8-1.2,5.5c-0.8,1.7-2.4,3.7-4.7,5.8l-9.6,9.1H1381.8z"/>
			</g>
			<g>
				<path class="st0" d="M1392.8,257.2c-0.5-0.5-0.8-1.2-0.8-1.9c0-0.8,0.3-1.4,0.8-1.9s1.2-0.7,1.9-0.7c0.8,0,1.4,0.2,2,0.7
					c0.5,0.5,0.8,1.1,0.8,1.9c0,0.8-0.3,1.4-0.8,1.9c-0.5,0.5-1.2,0.8-1.9,0.8C1393.9,257.9,1393.3,257.7,1392.8,257.2z"/>
				<path class="st0" d="M1402.1,257c-1.1-0.7-2-1.7-2.6-3c-0.6-1.3-0.9-2.9-0.9-4.7s0.3-3.3,0.9-4.7c0.6-1.3,1.5-2.3,2.6-3
					c1.1-0.7,2.4-1,3.8-1c1.4,0,2.7,0.3,3.8,1c1.1,0.7,2,1.7,2.6,3c0.6,1.3,0.9,2.9,0.9,4.7s-0.3,3.3-0.9,4.7
					c-0.6,1.3-1.5,2.3-2.6,3c-1.1,0.7-2.4,1-3.8,1C1404.5,258.1,1403.2,257.7,1402.1,257z M1407.8,253c0.5-0.8,0.7-2,0.7-3.7
					s-0.2-2.9-0.7-3.7c-0.5-0.8-1.1-1.2-1.9-1.2c-0.8,0-1.4,0.4-1.9,1.2c-0.5,0.8-0.7,2-0.7,3.7s0.2,2.9,0.7,3.7
					c0.5,0.8,1.1,1.2,1.9,1.2C1406.7,254.2,1407.3,253.8,1407.8,253z"/>
				<path class="st0" d="M1418.4,257c-1.1-0.7-2-1.7-2.6-3c-0.6-1.3-0.9-2.9-0.9-4.7s0.3-3.3,0.9-4.7c0.6-1.3,1.5-2.3,2.6-3
					c1.1-0.7,2.4-1,3.8-1c1.4,0,2.7,0.3,3.8,1c1.1,0.7,2,1.7,2.6,3c0.6,1.3,0.9,2.9,0.9,4.7s-0.3,3.3-0.9,4.7
					c-0.6,1.3-1.5,2.3-2.6,3c-1.1,0.7-2.4,1-3.8,1C1420.8,258.1,1419.5,257.7,1418.4,257z M1424.1,253c0.5-0.8,0.7-2,0.7-3.7
					s-0.2-2.9-0.7-3.7c-0.5-0.8-1.1-1.2-1.9-1.2c-0.8,0-1.4,0.4-1.9,1.2c-0.5,0.8-0.7,2-0.7,3.7s0.2,2.9,0.7,3.7
					c0.5,0.8,1.1,1.2,1.9,1.2C1423,254.2,1423.7,253.8,1424.1,253z"/>
			</g>
		</g>
		<g>
			<g>
				<path class="st0" d="M1206.1,223.7v35.9h-6.7v-30.3h-7.6v-5.6H1206.1z"/>
				<path class="st0" d="M1245.9,244.1c1,1.5,1.5,3.2,1.5,5.1c0,2.2-0.6,4.1-1.8,5.7c-1.2,1.6-2.9,2.9-5.2,3.8
					c-2.2,0.9-4.8,1.3-7.7,1.3s-5.5-0.4-7.7-1.3c-2.2-0.9-3.9-2.1-5.1-3.8c-1.2-1.6-1.8-3.6-1.8-5.7c0-1.9,0.5-3.6,1.5-5.1
					c1-1.5,2.4-2.6,4.3-3.5c-1.4-0.8-2.5-1.8-3.3-3.1c-0.8-1.3-1.2-2.8-1.2-4.4c0-2,0.6-3.8,1.7-5.3c1.1-1.5,2.7-2.7,4.7-3.5
					c2-0.8,4.3-1.2,7-1.2c2.7,0,5,0.4,7,1.2c2,0.8,3.6,2,4.7,3.5c1.1,1.5,1.7,3.3,1.7,5.3c0,1.7-0.4,3.1-1.2,4.4
					c-0.8,1.3-1.9,2.3-3.4,3.1C1243.5,241.5,1244.9,242.7,1245.9,244.1z M1238.6,253.3c1.4-1,2.2-2.4,2.2-4.3c0-1.8-0.7-3.2-2.2-4.2
					c-1.4-1-3.4-1.5-5.8-1.5c-2.5,0-4.4,0.5-5.8,1.5c-1.4,1-2.1,2.4-2.1,4.2c0,1.8,0.7,3.2,2.1,4.3c1.4,1,3.3,1.5,5.8,1.5
					C1235.2,254.8,1237.1,254.3,1238.6,253.3z M1227.8,229.7c-1.2,0.9-1.8,2.1-1.8,3.7c0,1.5,0.6,2.8,1.8,3.7
					c1.2,0.9,2.9,1.4,4.9,1.4c2.1,0,3.8-0.5,5-1.4c1.2-0.9,1.8-2.1,1.8-3.7c0-1.6-0.6-2.9-1.9-3.7c-1.2-0.9-2.9-1.3-5-1.3
					S1229,228.8,1227.8,229.7z"/>
			</g>
			<g>
				<path class="st0" d="M1254.2,258.4c-0.5-0.5-0.8-1.2-0.8-1.9c0-0.8,0.3-1.4,0.8-1.9s1.2-0.7,1.9-0.7c0.8,0,1.4,0.2,2,0.7
					c0.5,0.5,0.8,1.1,0.8,1.9c0,0.8-0.3,1.4-0.8,1.9c-0.5,0.5-1.2,0.8-1.9,0.8C1255.4,259.1,1254.7,258.9,1254.2,258.4z"/>
				<path class="st0" d="M1263.5,258.2c-1.1-0.7-2-1.7-2.6-3c-0.6-1.3-0.9-2.9-0.9-4.7s0.3-3.3,0.9-4.7c0.6-1.3,1.5-2.3,2.6-3
					c1.1-0.7,2.4-1,3.8-1c1.4,0,2.7,0.3,3.8,1c1.1,0.7,2,1.7,2.6,3c0.6,1.3,0.9,2.9,0.9,4.7s-0.3,3.3-0.9,4.7
					c-0.6,1.3-1.5,2.3-2.6,3c-1.1,0.7-2.4,1-3.8,1C1265.9,259.2,1264.6,258.9,1263.5,258.2z M1269.2,254.2c0.5-0.8,0.7-2,0.7-3.7
					s-0.2-2.9-0.7-3.7c-0.5-0.8-1.1-1.2-1.9-1.2c-0.8,0-1.4,0.4-1.9,1.2c-0.5,0.8-0.7,2-0.7,3.7s0.2,2.9,0.7,3.7
					c0.5,0.8,1.1,1.2,1.9,1.2C1268.1,255.4,1268.8,255,1269.2,254.2z"/>
				<path class="st0" d="M1279.8,258.2c-1.1-0.7-2-1.7-2.6-3c-0.6-1.3-0.9-2.9-0.9-4.7s0.3-3.3,0.9-4.7c0.6-1.3,1.5-2.3,2.6-3
					c1.1-0.7,2.4-1,3.8-1c1.4,0,2.7,0.3,3.8,1c1.1,0.7,2,1.7,2.6,3c0.6,1.3,0.9,2.9,0.9,4.7s-0.3,3.3-0.9,4.7
					c-0.6,1.3-1.5,2.3-2.6,3c-1.1,0.7-2.4,1-3.8,1C1282.2,259.2,1281,258.9,1279.8,258.2z M1285.5,254.2c0.5-0.8,0.7-2,0.7-3.7
					s-0.2-2.9-0.7-3.7c-0.5-0.8-1.1-1.2-1.9-1.2c-0.8,0-1.4,0.4-1.9,1.2c-0.5,0.8-0.7,2-0.7,3.7s0.2,2.9,0.7,3.7
					c0.5,0.8,1.1,1.2,1.9,1.2C1284.5,255.4,1285.1,255,1285.5,254.2z"/>
			</g>
		</g>
	</g>
	<g>
		<path class="st0" d="M1030.6,324.9c1.2,1.2,1.8,3,1.8,5.4v9.2h-4.7V331c0-1.3-0.3-2.2-0.8-2.9c-0.5-0.6-1.3-0.9-2.3-0.9
			c-1.1,0-2,0.4-2.6,1.1c-0.6,0.7-1,1.8-1,3.2v8.1h-4.7V331c0-2.5-1-3.8-3.1-3.8c-1.1,0-1.9,0.4-2.6,1.1c-0.6,0.7-1,1.8-1,3.2v8.1
			h-4.7v-16.1h4.5v1.9c0.6-0.7,1.3-1.2,2.2-1.6c0.9-0.4,1.8-0.5,2.9-0.5c1.1,0,2.2,0.2,3.1,0.7c0.9,0.5,1.7,1.1,2.2,2
			c0.7-0.8,1.5-1.5,2.5-1.9c1-0.5,2.1-0.7,3.3-0.7C1027.8,323.2,1029.4,323.7,1030.6,324.9z"/>
		<path class="st0" d="M1048.8,324.9c1.3,1.2,2,3,2,5.4v9.2h-4.4v-2c-0.9,1.5-2.5,2.3-4.9,2.3c-1.2,0-2.3-0.2-3.2-0.6
			s-1.6-1-2.1-1.7c-0.5-0.7-0.7-1.6-0.7-2.5c0-1.5,0.6-2.7,1.7-3.5s2.9-1.3,5.2-1.3h3.7c0-1-0.3-1.8-0.9-2.4
			c-0.6-0.5-1.5-0.8-2.8-0.8c-0.9,0-1.7,0.1-2.5,0.4s-1.5,0.6-2.1,1.1l-1.7-3.3c0.9-0.6,1.9-1.1,3.2-1.4c1.2-0.3,2.5-0.5,3.8-0.5
			C1045.6,323.2,1047.5,323.7,1048.8,324.9z M1044.9,336.1c0.6-0.4,1.1-0.9,1.3-1.6v-1.6h-3.2c-1.9,0-2.9,0.6-2.9,1.9
			c0,0.6,0.2,1.1,0.7,1.4c0.5,0.4,1.1,0.5,1.9,0.5C1043.5,336.6,1044.2,336.4,1044.9,336.1z"/>
		<path class="st0" d="M1061.8,323.8c1-0.4,2-0.6,3.3-0.6v4.3c-0.5,0-0.9-0.1-1-0.1c-1.3,0-2.4,0.4-3.1,1.1
			c-0.8,0.8-1.1,1.9-1.1,3.4v7.6h-4.7v-16.1h4.5v2.1C1060.1,324.7,1060.9,324.2,1061.8,323.8z"/>
		<path class="st0" d="M1078.9,338.8c-0.5,0.3-1,0.6-1.7,0.8c-0.7,0.2-1.4,0.3-2.1,0.3c-1.9,0-3.4-0.5-4.5-1.5c-1-1-1.6-2.4-1.6-4.3
			v-6.6h-2.5v-3.6h2.5v-3.9h4.7v3.9h4v3.6h-4v6.6c0,0.7,0.2,1.2,0.5,1.6c0.4,0.4,0.8,0.6,1.5,0.6c0.7,0,1.4-0.2,1.9-0.6
			L1078.9,338.8z"/>
		<path class="st0" d="M1096.7,332.8h-12.2c0.2,1,0.7,1.8,1.6,2.4c0.8,0.6,1.8,0.9,3.1,0.9c0.8,0,1.6-0.1,2.2-0.4
			c0.6-0.3,1.3-0.6,1.8-1.2l2.5,2.7c-1.5,1.7-3.7,2.6-6.7,2.6c-1.8,0-3.4-0.4-4.8-1.1c-1.4-0.7-2.5-1.7-3.2-3
			c-0.8-1.3-1.1-2.7-1.1-4.3c0-1.6,0.4-3,1.1-4.3c0.8-1.3,1.8-2.3,3.1-3s2.8-1.1,4.4-1.1c1.6,0,3,0.3,4.3,1c1.3,0.7,2.3,1.7,3,2.9
			c0.7,1.3,1.1,2.7,1.1,4.4C1096.8,331.6,1096.8,332,1096.7,332.8z M1085.8,327.6c-0.7,0.6-1.2,1.4-1.3,2.5h7.9
			c-0.2-1-0.6-1.8-1.3-2.4c-0.7-0.6-1.6-0.9-2.6-0.9C1087.4,326.7,1086.5,327,1085.8,327.6z"/>
		<path class="st0" d="M1116.4,317.3v22.3h-4.5v-1.9c-1.2,1.4-2.8,2.1-5,2.1c-1.5,0-2.9-0.3-4.1-1c-1.2-0.7-2.2-1.7-2.9-2.9
			c-0.7-1.3-1.1-2.7-1.1-4.4s0.4-3.1,1.1-4.4c0.7-1.3,1.7-2.2,2.9-2.9c1.2-0.7,2.6-1,4.1-1c2.1,0,3.7,0.6,4.8,1.9v-7.8H1116.4z
			 M1110.6,334.7c0.8-0.8,1.2-1.9,1.2-3.3c0-1.4-0.4-2.4-1.2-3.3c-0.8-0.8-1.8-1.2-2.9-1.2c-1.2,0-2.2,0.4-3,1.2
			c-0.8,0.8-1.2,1.9-1.2,3.3c0,1.4,0.4,2.4,1.2,3.3c0.8,0.8,1.8,1.2,3,1.2C1108.9,335.9,1109.8,335.5,1110.6,334.7z"/>
		<path class="st0" d="M1116.7,317h5l4.1,4.3h-3.7L1116.7,317z M1120.7,323.4h4.7v16.1h-4.7V323.4z"/>
	</g>
	<g>
		<g>
			<g>
				<path class="st0" d="M1349.5,339v5.6h-26.5v-4.5l14.3-13.5c1.6-1.5,2.7-2.9,3.3-4c0.6-1.1,0.8-2.3,0.8-3.4c0-1.7-0.6-3-1.7-3.8
					c-1.1-0.9-2.8-1.3-5-1.3c-3.7,0-6.5,1.2-8.4,3.7l-4.7-3.6c1.4-1.9,3.3-3.3,5.7-4.4c2.4-1,5-1.6,8-1.6c3.9,0,7,0.9,9.3,2.8
					c2.3,1.8,3.5,4.4,3.5,7.5c0,1.9-0.4,3.8-1.2,5.5c-0.8,1.7-2.4,3.7-4.7,5.8l-9.6,9.1H1349.5z"/>
				<path class="st0" d="M1381.8,339v5.6h-26.5v-4.5l14.3-13.5c1.6-1.5,2.7-2.9,3.3-4c0.6-1.1,0.8-2.3,0.8-3.4c0-1.7-0.6-3-1.7-3.8
					c-1.1-0.9-2.8-1.3-5-1.3c-3.7,0-6.5,1.2-8.4,3.7l-4.7-3.6c1.4-1.9,3.3-3.3,5.7-4.4c2.4-1,5-1.6,8-1.6c3.9,0,7,0.9,9.3,2.8
					c2.3,1.8,3.5,4.4,3.5,7.5c0,1.9-0.4,3.8-1.2,5.5c-0.8,1.7-2.4,3.7-4.7,5.8l-9.6,9.1H1381.8z"/>
			</g>
			<g>
				<path class="st0" d="M1392.8,342.2c-0.5-0.5-0.8-1.2-0.8-1.9c0-0.8,0.3-1.4,0.8-1.9s1.2-0.7,1.9-0.7c0.8,0,1.4,0.2,2,0.7
					c0.5,0.5,0.8,1.1,0.8,1.9c0,0.8-0.3,1.4-0.8,1.9c-0.5,0.5-1.2,0.8-1.9,0.8C1393.9,343,1393.3,342.7,1392.8,342.2z"/>
				<path class="st0" d="M1402.1,342.1c-1.1-0.7-2-1.7-2.6-3c-0.6-1.3-0.9-2.9-0.9-4.7s0.3-3.3,0.9-4.7c0.6-1.3,1.5-2.3,2.6-3
					c1.1-0.7,2.4-1,3.8-1c1.4,0,2.7,0.3,3.8,1c1.1,0.7,2,1.7,2.6,3c0.6,1.3,0.9,2.9,0.9,4.7s-0.3,3.3-0.9,4.7
					c-0.6,1.3-1.5,2.3-2.6,3c-1.1,0.7-2.4,1-3.8,1C1404.5,343.1,1403.2,342.8,1402.1,342.1z M1407.8,338.1c0.5-0.8,0.7-2,0.7-3.7
					s-0.2-2.9-0.7-3.7c-0.5-0.8-1.1-1.2-1.9-1.2c-0.8,0-1.4,0.4-1.9,1.2c-0.5,0.8-0.7,2-0.7,3.7s0.2,2.9,0.7,3.7
					c0.5,0.8,1.1,1.2,1.9,1.2C1406.7,339.3,1407.3,338.9,1407.8,338.1z"/>
				<path class="st0" d="M1418.4,342.1c-1.1-0.7-2-1.7-2.6-3c-0.6-1.3-0.9-2.9-0.9-4.7s0.3-3.3,0.9-4.7c0.6-1.3,1.5-2.3,2.6-3
					c1.1-0.7,2.4-1,3.8-1c1.4,0,2.7,0.3,3.8,1c1.1,0.7,2,1.7,2.6,3c0.6,1.3,0.9,2.9,0.9,4.7s-0.3,3.3-0.9,4.7
					c-0.6,1.3-1.5,2.3-2.6,3c-1.1,0.7-2.4,1-3.8,1C1420.8,343.1,1419.5,342.8,1418.4,342.1z M1424.1,338.1c0.5-0.8,0.7-2,0.7-3.7
					s-0.2-2.9-0.7-3.7c-0.5-0.8-1.1-1.2-1.9-1.2c-0.8,0-1.4,0.4-1.9,1.2c-0.5,0.8-0.7,2-0.7,3.7s0.2,2.9,0.7,3.7
					c0.5,0.8,1.1,1.2,1.9,1.2C1423,339.3,1423.7,338.9,1424.1,338.1z"/>
			</g>
		</g>
		<g>
			<g>
				<path class="st0" d="M1206.1,308.7v35.9h-6.7v-30.3h-7.6v-5.6H1206.1z"/>
				<path class="st0" d="M1245.9,329.2c1,1.5,1.5,3.2,1.5,5.1c0,2.2-0.6,4.1-1.8,5.7c-1.2,1.6-2.9,2.9-5.2,3.8
					c-2.2,0.9-4.8,1.3-7.7,1.3s-5.5-0.4-7.7-1.3c-2.2-0.9-3.9-2.1-5.1-3.8c-1.2-1.6-1.8-3.6-1.8-5.7c0-1.9,0.5-3.6,1.5-5.1
					c1-1.5,2.4-2.6,4.3-3.5c-1.4-0.8-2.5-1.8-3.3-3.1c-0.8-1.3-1.2-2.8-1.2-4.4c0-2,0.6-3.8,1.7-5.3c1.1-1.5,2.7-2.7,4.7-3.5
					c2-0.8,4.3-1.2,7-1.2c2.7,0,5,0.4,7,1.2c2,0.8,3.6,2,4.7,3.5c1.1,1.5,1.7,3.3,1.7,5.3c0,1.7-0.4,3.1-1.2,4.4
					c-0.8,1.3-1.9,2.3-3.4,3.1C1243.5,326.6,1244.9,327.7,1245.9,329.2z M1238.6,338.3c1.4-1,2.2-2.4,2.2-4.3c0-1.8-0.7-3.2-2.2-4.2
					c-1.4-1-3.4-1.5-5.8-1.5c-2.5,0-4.4,0.5-5.8,1.5c-1.4,1-2.1,2.4-2.1,4.2c0,1.8,0.7,3.2,2.1,4.3c1.4,1,3.3,1.5,5.8,1.5
					C1235.2,339.9,1237.1,339.4,1238.6,338.3z M1227.8,314.8c-1.2,0.9-1.8,2.1-1.8,3.7c0,1.5,0.6,2.8,1.8,3.7
					c1.2,0.9,2.9,1.4,4.9,1.4c2.1,0,3.8-0.5,5-1.4c1.2-0.9,1.8-2.1,1.8-3.7c0-1.6-0.6-2.9-1.9-3.7c-1.2-0.9-2.9-1.3-5-1.3
					S1229,313.9,1227.8,314.8z"/>
			</g>
			<g>
				<path class="st0" d="M1254.2,343.4c-0.5-0.5-0.8-1.2-0.8-1.9c0-0.8,0.3-1.4,0.8-1.9s1.2-0.7,1.9-0.7c0.8,0,1.4,0.2,2,0.7
					c0.5,0.5,0.8,1.1,0.8,1.9c0,0.8-0.3,1.4-0.8,1.9c-0.5,0.5-1.2,0.8-1.9,0.8C1255.4,344.2,1254.7,343.9,1254.2,343.4z"/>
				<path class="st0" d="M1263.5,343.3c-1.1-0.7-2-1.7-2.6-3c-0.6-1.3-0.9-2.9-0.9-4.7s0.3-3.3,0.9-4.7c0.6-1.3,1.5-2.3,2.6-3
					c1.1-0.7,2.4-1,3.8-1c1.4,0,2.7,0.3,3.8,1c1.1,0.7,2,1.7,2.6,3c0.6,1.3,0.9,2.9,0.9,4.7s-0.3,3.3-0.9,4.7
					c-0.6,1.3-1.5,2.3-2.6,3c-1.1,0.7-2.4,1-3.8,1C1265.9,344.3,1264.6,343.9,1263.5,343.3z M1269.2,339.3c0.5-0.8,0.7-2,0.7-3.7
					s-0.2-2.9-0.7-3.7c-0.5-0.8-1.1-1.2-1.9-1.2c-0.8,0-1.4,0.4-1.9,1.2c-0.5,0.8-0.7,2-0.7,3.7s0.2,2.9,0.7,3.7
					c0.5,0.8,1.1,1.2,1.9,1.2C1268.1,340.4,1268.8,340,1269.2,339.3z"/>
				<path class="st0" d="M1279.8,343.3c-1.1-0.7-2-1.7-2.6-3c-0.6-1.3-0.9-2.9-0.9-4.7s0.3-3.3,0.9-4.7c0.6-1.3,1.5-2.3,2.6-3
					c1.1-0.7,2.4-1,3.8-1c1.4,0,2.7,0.3,3.8,1c1.1,0.7,2,1.7,2.6,3c0.6,1.3,0.9,2.9,0.9,4.7s-0.3,3.3-0.9,4.7
					c-0.6,1.3-1.5,2.3-2.6,3c-1.1,0.7-2.4,1-3.8,1C1282.2,344.3,1281,343.9,1279.8,343.3z M1285.5,339.3c0.5-0.8,0.7-2,0.7-3.7
					s-0.2-2.9-0.7-3.7c-0.5-0.8-1.1-1.2-1.9-1.2c-0.8,0-1.4,0.4-1.9,1.2c-0.5,0.8-0.7,2-0.7,3.7s0.2,2.9,0.7,3.7
					c0.5,0.8,1.1,1.2,1.9,1.2C1284.5,340.4,1285.1,340,1285.5,339.3z"/>
			</g>
		</g>
	</g>
	<g>
		<path class="st0" d="M1030.6,410c1.2,1.2,1.8,3,1.8,5.4v9.2h-4.7v-8.5c0-1.3-0.3-2.2-0.8-2.9c-0.5-0.6-1.3-0.9-2.3-0.9
			c-1.1,0-2,0.4-2.6,1.1c-0.6,0.7-1,1.8-1,3.2v8.1h-4.7v-8.5c0-2.5-1-3.8-3.1-3.8c-1.1,0-1.9,0.4-2.6,1.1c-0.6,0.7-1,1.8-1,3.2v8.1
			h-4.7v-16.1h4.5v1.9c0.6-0.7,1.3-1.2,2.2-1.6c0.9-0.4,1.8-0.5,2.9-0.5c1.1,0,2.2,0.2,3.1,0.7c0.9,0.5,1.7,1.1,2.2,2
			c0.7-0.8,1.5-1.5,2.5-1.9c1-0.5,2.1-0.7,3.3-0.7C1027.8,408.2,1029.4,408.8,1030.6,410z"/>
		<path class="st0" d="M1052.5,417.8h-12.2c0.2,1,0.7,1.8,1.6,2.4c0.8,0.6,1.8,0.9,3.1,0.9c0.8,0,1.6-0.1,2.2-0.4
			c0.6-0.3,1.3-0.6,1.8-1.2l2.5,2.7c-1.5,1.7-3.7,2.6-6.7,2.6c-1.8,0-3.4-0.4-4.8-1.1c-1.4-0.7-2.5-1.7-3.2-3
			c-0.8-1.3-1.1-2.7-1.1-4.3c0-1.6,0.4-3,1.1-4.3c0.8-1.3,1.8-2.3,3.1-3s2.8-1.1,4.4-1.1c1.6,0,3,0.3,4.3,1c1.3,0.7,2.3,1.7,3,2.9
			c0.7,1.3,1.1,2.7,1.1,4.4C1052.6,416.6,1052.5,417.1,1052.5,417.8z M1041.5,412.6c-0.7,0.6-1.2,1.4-1.3,2.5h7.9
			c-0.2-1-0.6-1.8-1.3-2.4c-0.7-0.6-1.6-0.9-2.6-0.9C1043.1,411.7,1042.2,412,1041.5,412.6z"/>
		<path class="st0" d="M1062.4,408.8c1-0.4,2-0.6,3.3-0.6v4.3c-0.5,0-0.9-0.1-1-0.1c-1.3,0-2.4,0.4-3.1,1.1
			c-0.8,0.8-1.1,1.9-1.1,3.4v7.6h-4.7v-16.1h4.5v2.1C1060.7,409.8,1061.5,409.2,1062.4,408.8z"/>
		<path class="st0" d="M1071.5,423.8c-1.4-0.7-2.4-1.7-3.2-3c-0.8-1.3-1.2-2.7-1.2-4.3s0.4-3,1.2-4.3c0.8-1.3,1.8-2.2,3.2-3
			c1.4-0.7,2.9-1.1,4.6-1.1c1.7,0,3.2,0.4,4.5,1.1c1.3,0.7,2.2,1.7,2.8,3l-3.6,2c-0.8-1.5-2-2.2-3.6-2.2c-1.2,0-2.2,0.4-3,1.2
			c-0.8,0.8-1.2,1.9-1.2,3.3c0,1.4,0.4,2.5,1.2,3.3c0.8,0.8,1.8,1.2,3,1.2c1.6,0,2.8-0.7,3.6-2.2l3.6,2c-0.6,1.3-1.5,2.3-2.8,3
			c-1.3,0.7-2.8,1.1-4.5,1.1C1074.4,424.8,1072.9,424.5,1071.5,423.8z"/>
		<path class="st0" d="M1089,423.8c-1.3-0.7-2.4-1.7-3.2-3c-0.8-1.3-1.1-2.7-1.1-4.3s0.4-3,1.1-4.3c0.8-1.3,1.8-2.2,3.2-3
			c1.4-0.7,2.9-1.1,4.6-1.1s3.2,0.4,4.6,1.1c1.3,0.7,2.4,1.7,3.1,3c0.8,1.3,1.1,2.7,1.1,4.3s-0.4,3-1.1,4.3c-0.8,1.3-1.8,2.2-3.1,3
			c-1.3,0.7-2.9,1.1-4.6,1.1S1090.3,424.5,1089,423.8z M1096.5,419.8c0.8-0.8,1.2-1.9,1.2-3.3c0-1.4-0.4-2.4-1.2-3.3
			c-0.8-0.8-1.8-1.2-3-1.2s-2.2,0.4-3,1.2c-0.8,0.8-1.2,1.9-1.2,3.3c0,1.4,0.4,2.4,1.2,3.3s1.8,1.2,3,1.2S1095.7,420.6,1096.5,419.8
			z"/>
		<path class="st0" d="M1105.5,402.3h4.7v22.3h-4.7V402.3z"/>
		<path class="st0" d="M1130.3,417.8h-12.2c0.2,1,0.7,1.8,1.6,2.4c0.8,0.6,1.8,0.9,3.1,0.9c0.8,0,1.6-0.1,2.2-0.4
			c0.6-0.3,1.3-0.6,1.8-1.2l2.5,2.7c-1.5,1.7-3.7,2.6-6.7,2.6c-1.8,0-3.4-0.4-4.8-1.1c-1.4-0.7-2.5-1.7-3.2-3
			c-0.8-1.3-1.1-2.7-1.1-4.3c0-1.6,0.4-3,1.1-4.3c0.8-1.3,1.8-2.3,3.1-3s2.8-1.1,4.4-1.1c1.6,0,3,0.3,4.3,1c1.3,0.7,2.3,1.7,3,2.9
			c0.7,1.3,1.1,2.7,1.1,4.4C1130.4,416.6,1130.3,417.1,1130.3,417.8z M1119.3,412.6c-0.7,0.6-1.2,1.4-1.3,2.5h7.9
			c-0.2-1-0.6-1.8-1.3-2.4c-0.7-0.6-1.6-0.9-2.6-0.9C1120.9,411.7,1120,412,1119.3,412.6z"/>
		<path class="st0" d="M1149.9,402.3v22.3h-4.5v-1.9c-1.2,1.4-2.8,2.1-5,2.1c-1.5,0-2.9-0.3-4.1-1c-1.2-0.7-2.2-1.7-2.9-2.9
			c-0.7-1.3-1.1-2.7-1.1-4.4s0.4-3.1,1.1-4.4c0.7-1.3,1.7-2.2,2.9-2.9c1.2-0.7,2.6-1,4.1-1c2.1,0,3.7,0.6,4.8,1.9v-7.8H1149.9z
			 M1144.2,419.8c0.8-0.8,1.2-1.9,1.2-3.3c0-1.4-0.4-2.4-1.2-3.3c-0.8-0.8-1.8-1.2-2.9-1.2c-1.2,0-2.2,0.4-3,1.2
			c-0.8,0.8-1.2,1.9-1.2,3.3c0,1.4,0.4,2.4,1.2,3.3c0.8,0.8,1.8,1.2,3,1.2C1142.4,421,1143.4,420.6,1144.2,419.8z"/>
		<path class="st0" d="M1150.2,402.1h5l4.1,4.3h-3.7L1150.2,402.1z M1154.2,408.4h4.7v16.1h-4.7V408.4z"/>
	</g>
	<g>
		<g>
			<g>
				<path class="st0" d="M1349.5,424v5.6h-26.5v-4.5l14.3-13.5c1.6-1.5,2.7-2.9,3.3-4c0.6-1.1,0.8-2.3,0.8-3.4c0-1.7-0.6-3-1.7-3.8
					c-1.1-0.9-2.8-1.3-5-1.3c-3.7,0-6.5,1.2-8.4,3.7l-4.7-3.6c1.4-1.9,3.3-3.3,5.7-4.4c2.4-1,5-1.6,8-1.6c3.9,0,7,0.9,9.3,2.8
					c2.3,1.8,3.5,4.4,3.5,7.5c0,1.9-0.4,3.8-1.2,5.5c-0.8,1.7-2.4,3.7-4.7,5.8l-9.6,9.1H1349.5z"/>
				<path class="st0" d="M1381.8,424v5.6h-26.5v-4.5l14.3-13.5c1.6-1.5,2.7-2.9,3.3-4c0.6-1.1,0.8-2.3,0.8-3.4c0-1.7-0.6-3-1.7-3.8
					c-1.1-0.9-2.8-1.3-5-1.3c-3.7,0-6.5,1.2-8.4,3.7l-4.7-3.6c1.4-1.9,3.3-3.3,5.7-4.4c2.4-1,5-1.6,8-1.6c3.9,0,7,0.9,9.3,2.8
					c2.3,1.8,3.5,4.4,3.5,7.5c0,1.9-0.4,3.8-1.2,5.5c-0.8,1.7-2.4,3.7-4.7,5.8l-9.6,9.1H1381.8z"/>
			</g>
			<g>
				<path class="st0" d="M1392.8,427.3c-0.5-0.5-0.8-1.2-0.8-1.9c0-0.8,0.3-1.4,0.8-1.9s1.2-0.7,1.9-0.7c0.8,0,1.4,0.2,2,0.7
					c0.5,0.5,0.8,1.1,0.8,1.9c0,0.8-0.3,1.4-0.8,1.9c-0.5,0.5-1.2,0.8-1.9,0.8C1393.9,428,1393.3,427.8,1392.8,427.3z"/>
				<path class="st0" d="M1402.1,427.1c-1.1-0.7-2-1.7-2.6-3c-0.6-1.3-0.9-2.9-0.9-4.7s0.3-3.3,0.9-4.7c0.6-1.3,1.5-2.3,2.6-3
					c1.1-0.7,2.4-1,3.8-1c1.4,0,2.7,0.3,3.8,1c1.1,0.7,2,1.7,2.6,3c0.6,1.3,0.9,2.9,0.9,4.7s-0.3,3.3-0.9,4.7
					c-0.6,1.3-1.5,2.3-2.6,3c-1.1,0.7-2.4,1-3.8,1C1404.5,428.2,1403.2,427.8,1402.1,427.1z M1407.8,423.2c0.5-0.8,0.7-2,0.7-3.7
					s-0.2-2.9-0.7-3.7c-0.5-0.8-1.1-1.2-1.9-1.2c-0.8,0-1.4,0.4-1.9,1.2c-0.5,0.8-0.7,2-0.7,3.7s0.2,2.9,0.7,3.7
					c0.5,0.8,1.1,1.2,1.9,1.2C1406.7,424.3,1407.3,423.9,1407.8,423.2z"/>
				<path class="st0" d="M1418.4,427.1c-1.1-0.7-2-1.7-2.6-3c-0.6-1.3-0.9-2.9-0.9-4.7s0.3-3.3,0.9-4.7c0.6-1.3,1.5-2.3,2.6-3
					c1.1-0.7,2.4-1,3.8-1c1.4,0,2.7,0.3,3.8,1c1.1,0.7,2,1.7,2.6,3c0.6,1.3,0.9,2.9,0.9,4.7s-0.3,3.3-0.9,4.7
					c-0.6,1.3-1.5,2.3-2.6,3c-1.1,0.7-2.4,1-3.8,1C1420.8,428.2,1419.5,427.8,1418.4,427.1z M1424.1,423.2c0.5-0.8,0.7-2,0.7-3.7
					s-0.2-2.9-0.7-3.7c-0.5-0.8-1.1-1.2-1.9-1.2c-0.8,0-1.4,0.4-1.9,1.2c-0.5,0.8-0.7,2-0.7,3.7s0.2,2.9,0.7,3.7
					c0.5,0.8,1.1,1.2,1.9,1.2C1423,424.3,1423.7,423.9,1424.1,423.2z"/>
			</g>
		</g>
		<g>
			<g>
				<path class="st0" d="M1206.1,393.8v35.9h-6.7v-30.3h-7.6v-5.6H1206.1z"/>
				<path class="st0" d="M1245.9,414.2c1,1.5,1.5,3.2,1.5,5.1c0,2.2-0.6,4.1-1.8,5.7c-1.2,1.6-2.9,2.9-5.2,3.8
					c-2.2,0.9-4.8,1.3-7.7,1.3s-5.5-0.4-7.7-1.3c-2.2-0.9-3.9-2.1-5.1-3.8c-1.2-1.6-1.8-3.6-1.8-5.7c0-1.9,0.5-3.6,1.5-5.1
					c1-1.5,2.4-2.6,4.3-3.5c-1.4-0.8-2.5-1.8-3.3-3.1c-0.8-1.3-1.2-2.8-1.2-4.4c0-2,0.6-3.8,1.7-5.3c1.1-1.5,2.7-2.7,4.7-3.5
					c2-0.8,4.3-1.2,7-1.2c2.7,0,5,0.4,7,1.2c2,0.8,3.6,2,4.7,3.5c1.1,1.5,1.7,3.3,1.7,5.3c0,1.7-0.4,3.1-1.2,4.4
					c-0.8,1.3-1.9,2.3-3.4,3.1C1243.5,411.6,1244.9,412.8,1245.9,414.2z M1238.6,423.4c1.4-1,2.2-2.4,2.2-4.3c0-1.8-0.7-3.2-2.2-4.2
					c-1.4-1-3.4-1.5-5.8-1.5c-2.5,0-4.4,0.5-5.8,1.5c-1.4,1-2.1,2.4-2.1,4.2c0,1.8,0.7,3.2,2.1,4.3c1.4,1,3.3,1.5,5.8,1.5
					C1235.2,424.9,1237.1,424.4,1238.6,423.4z M1227.8,399.8c-1.2,0.9-1.8,2.1-1.8,3.7c0,1.5,0.6,2.8,1.8,3.7
					c1.2,0.9,2.9,1.4,4.9,1.4c2.1,0,3.8-0.5,5-1.4c1.2-0.9,1.8-2.1,1.8-3.7c0-1.6-0.6-2.9-1.9-3.7c-1.2-0.9-2.9-1.3-5-1.3
					S1229,398.9,1227.8,399.8z"/>
			</g>
			<g>
				<path class="st0" d="M1254.2,428.5c-0.5-0.5-0.8-1.2-0.8-1.9c0-0.8,0.3-1.4,0.8-1.9s1.2-0.7,1.9-0.7c0.8,0,1.4,0.2,2,0.7
					c0.5,0.5,0.8,1.1,0.8,1.9c0,0.8-0.3,1.4-0.8,1.9c-0.5,0.5-1.2,0.8-1.9,0.8C1255.4,429.2,1254.7,429,1254.2,428.5z"/>
				<path class="st0" d="M1263.5,428.3c-1.1-0.7-2-1.7-2.6-3c-0.6-1.3-0.9-2.9-0.9-4.7s0.3-3.3,0.9-4.7c0.6-1.3,1.5-2.3,2.6-3
					c1.1-0.7,2.4-1,3.8-1c1.4,0,2.7,0.3,3.8,1c1.1,0.7,2,1.7,2.6,3c0.6,1.3,0.9,2.9,0.9,4.7s-0.3,3.3-0.9,4.7
					c-0.6,1.3-1.5,2.3-2.6,3c-1.1,0.7-2.4,1-3.8,1C1265.9,429.3,1264.6,429,1263.5,428.3z M1269.2,424.3c0.5-0.8,0.7-2,0.7-3.7
					s-0.2-2.9-0.7-3.7c-0.5-0.8-1.1-1.2-1.9-1.2c-0.8,0-1.4,0.4-1.9,1.2c-0.5,0.8-0.7,2-0.7,3.7s0.2,2.9,0.7,3.7
					c0.5,0.8,1.1,1.2,1.9,1.2C1268.1,425.5,1268.8,425.1,1269.2,424.3z"/>
				<path class="st0" d="M1279.8,428.3c-1.1-0.7-2-1.7-2.6-3c-0.6-1.3-0.9-2.9-0.9-4.7s0.3-3.3,0.9-4.7c0.6-1.3,1.5-2.3,2.6-3
					c1.1-0.7,2.4-1,3.8-1c1.4,0,2.7,0.3,3.8,1c1.1,0.7,2,1.7,2.6,3c0.6,1.3,0.9,2.9,0.9,4.7s-0.3,3.3-0.9,4.7
					c-0.6,1.3-1.5,2.3-2.6,3c-1.1,0.7-2.4,1-3.8,1C1282.2,429.3,1281,429,1279.8,428.3z M1285.5,424.3c0.5-0.8,0.7-2,0.7-3.7
					s-0.2-2.9-0.7-3.7c-0.5-0.8-1.1-1.2-1.9-1.2c-0.8,0-1.4,0.4-1.9,1.2c-0.5,0.8-0.7,2-0.7,3.7s0.2,2.9,0.7,3.7
					c0.5,0.8,1.1,1.2,1.9,1.2C1284.5,425.5,1285.1,425.1,1285.5,424.3z"/>
			</g>
		</g>
	</g>
	<g>
		<path class="st0" d="M1021.8,493.5v13.4c0,3-0.8,5.2-2.3,6.6s-3.8,2.2-6.8,2.2c-1.6,0-3-0.2-4.4-0.6c-1.4-0.4-2.6-0.9-3.5-1.7
			l1.9-3.4c0.7,0.6,1.5,1,2.6,1.3s2.1,0.5,3.1,0.5c1.6,0,2.8-0.4,3.6-1.1c0.8-0.7,1.2-1.8,1.2-3.3v-0.7c-1.2,1.3-2.9,2-5.1,2
			c-1.5,0-2.8-0.3-4.1-1c-1.2-0.6-2.2-1.6-2.9-2.7c-0.7-1.2-1.1-2.5-1.1-4.1c0-1.5,0.4-2.9,1.1-4.1c0.7-1.2,1.7-2.1,2.9-2.7
			c1.2-0.6,2.6-1,4.1-1c2.3,0,4.1,0.8,5.3,2.3v-2.1H1021.8z M1015.9,503.9c0.8-0.7,1.2-1.7,1.2-2.9c0-1.2-0.4-2.1-1.2-2.9
			s-1.8-1.1-3-1.1s-2.3,0.4-3.1,1.1c-0.8,0.7-1.2,1.7-1.2,2.9c0,1.2,0.4,2.1,1.2,2.9c0.8,0.7,1.8,1.1,3.1,1.1
			S1015.2,504.7,1015.9,503.9z"/>
		<path class="st0" d="M1026.3,490.5c-0.5-0.5-0.8-1.1-0.8-1.9c0-0.7,0.3-1.4,0.8-1.9s1.2-0.8,2.1-0.8c0.9,0,1.6,0.2,2.1,0.7
			s0.8,1.1,0.8,1.8c0,0.8-0.3,1.4-0.8,1.9c-0.5,0.5-1.2,0.8-2.1,0.8C1027.6,491.2,1026.9,491,1026.3,490.5z M1026.1,493.5h4.7v16.1
			h-4.7V493.5z"/>
		<path class="st0" d="M1038.2,508.8c-1.3-0.7-2.4-1.7-3.2-3c-0.8-1.3-1.1-2.7-1.1-4.3s0.4-3,1.1-4.3c0.8-1.3,1.8-2.2,3.2-3
			c1.4-0.7,2.9-1.1,4.6-1.1s3.2,0.4,4.6,1.1c1.3,0.7,2.4,1.7,3.1,3c0.8,1.3,1.1,2.7,1.1,4.3s-0.4,3-1.1,4.3c-0.8,1.3-1.8,2.2-3.1,3
			c-1.3,0.7-2.9,1.1-4.6,1.1S1039.6,509.5,1038.2,508.8z M1045.8,504.8c0.8-0.8,1.2-1.9,1.2-3.3c0-1.4-0.4-2.4-1.2-3.3
			c-0.8-0.8-1.8-1.2-3-1.2s-2.2,0.4-3,1.2c-0.8,0.8-1.2,1.9-1.2,3.3c0,1.4,0.4,2.4,1.2,3.3s1.8,1.2,3,1.2S1045,505.6,1045.8,504.8z"
			/>
		<path class="st0" d="M1070.4,493.5l-6.8,16.1h-4.8l-6.8-16.1h4.8l4.5,11l4.6-11H1070.4z"/>
		<path class="st0" d="M1087.5,502.9h-12.2c0.2,1,0.7,1.8,1.6,2.4c0.8,0.6,1.8,0.9,3.1,0.9c0.8,0,1.6-0.1,2.2-0.4
			c0.6-0.3,1.3-0.6,1.8-1.2l2.5,2.7c-1.5,1.7-3.7,2.6-6.7,2.6c-1.8,0-3.4-0.4-4.8-1.1c-1.4-0.7-2.5-1.7-3.2-3
			c-0.8-1.3-1.1-2.7-1.1-4.3c0-1.6,0.4-3,1.1-4.3c0.8-1.3,1.8-2.3,3.1-3s2.8-1.1,4.4-1.1c1.6,0,3,0.3,4.3,1c1.3,0.7,2.3,1.7,3,2.9
			c0.7,1.3,1.1,2.7,1.1,4.4C1087.6,501.7,1087.6,502.1,1087.5,502.9z M1076.6,497.7c-0.7,0.6-1.2,1.4-1.3,2.5h7.9
			c-0.2-1-0.6-1.8-1.3-2.4c-0.7-0.6-1.6-0.9-2.6-0.9C1078.2,496.8,1077.3,497.1,1076.6,497.7z"/>
		<path class="st0" d="M1107.2,487.4v22.3h-4.5v-1.9c-1.2,1.4-2.8,2.1-5,2.1c-1.5,0-2.9-0.3-4.1-1c-1.2-0.7-2.2-1.7-2.9-2.9
			c-0.7-1.3-1.1-2.7-1.1-4.4s0.4-3.1,1.1-4.4c0.7-1.3,1.7-2.2,2.9-2.9c1.2-0.7,2.6-1,4.1-1c2.1,0,3.7,0.6,4.8,1.9v-7.8H1107.2z
			 M1101.4,504.8c0.8-0.8,1.2-1.9,1.2-3.3c0-1.4-0.4-2.4-1.2-3.3c-0.8-0.8-1.8-1.2-2.9-1.2c-1.2,0-2.2,0.4-3,1.2
			c-0.8,0.8-1.2,1.9-1.2,3.3c0,1.4,0.4,2.4,1.2,3.3c0.8,0.8,1.8,1.2,3,1.2C1099.7,506,1100.7,505.6,1101.4,504.8z"/>
		<path class="st0" d="M1107.5,487.1h5l4.1,4.3h-3.7L1107.5,487.1z M1111.5,493.5h4.7v16.1h-4.7V493.5z"/>
	</g>
	<g>
		<g>
			<g>
				<path class="st0" d="M1349.5,509.1v5.6h-26.5v-4.5l14.3-13.5c1.6-1.5,2.7-2.9,3.3-4c0.6-1.1,0.8-2.3,0.8-3.4
					c0-1.7-0.6-3-1.7-3.8c-1.1-0.9-2.8-1.3-5-1.3c-3.7,0-6.5,1.2-8.4,3.7l-4.7-3.6c1.4-1.9,3.3-3.3,5.7-4.4c2.4-1,5-1.6,8-1.6
					c3.9,0,7,0.9,9.3,2.8c2.3,1.8,3.5,4.4,3.5,7.5c0,1.9-0.4,3.8-1.2,5.5c-0.8,1.7-2.4,3.7-4.7,5.8l-9.6,9.1H1349.5z"/>
				<path class="st0" d="M1381.8,509.1v5.6h-26.5v-4.5l14.3-13.5c1.6-1.5,2.7-2.9,3.3-4c0.6-1.1,0.8-2.3,0.8-3.4
					c0-1.7-0.6-3-1.7-3.8c-1.1-0.9-2.8-1.3-5-1.3c-3.7,0-6.5,1.2-8.4,3.7l-4.7-3.6c1.4-1.9,3.3-3.3,5.7-4.4c2.4-1,5-1.6,8-1.6
					c3.9,0,7,0.9,9.3,2.8c2.3,1.8,3.5,4.4,3.5,7.5c0,1.9-0.4,3.8-1.2,5.5c-0.8,1.7-2.4,3.7-4.7,5.8l-9.6,9.1H1381.8z"/>
			</g>
			<g>
				<path class="st0" d="M1392.8,512.3c-0.5-0.5-0.8-1.2-0.8-1.9c0-0.8,0.3-1.4,0.8-1.9s1.2-0.7,1.9-0.7c0.8,0,1.4,0.2,2,0.7
					c0.5,0.5,0.8,1.1,0.8,1.9c0,0.8-0.3,1.4-0.8,1.9c-0.5,0.5-1.2,0.8-1.9,0.8C1393.9,513.1,1393.3,512.8,1392.8,512.3z"/>
				<path class="st0" d="M1402.1,512.2c-1.1-0.7-2-1.7-2.6-3c-0.6-1.3-0.9-2.9-0.9-4.7s0.3-3.3,0.9-4.7c0.6-1.3,1.5-2.3,2.6-3
					c1.1-0.7,2.4-1,3.8-1c1.4,0,2.7,0.3,3.8,1c1.1,0.7,2,1.7,2.6,3c0.6,1.3,0.9,2.9,0.9,4.7s-0.3,3.3-0.9,4.7
					c-0.6,1.3-1.5,2.3-2.6,3c-1.1,0.7-2.4,1-3.8,1C1404.5,513.2,1403.2,512.9,1402.1,512.2z M1407.8,508.2c0.5-0.8,0.7-2,0.7-3.7
					s-0.2-2.9-0.7-3.7c-0.5-0.8-1.1-1.2-1.9-1.2c-0.8,0-1.4,0.4-1.9,1.2c-0.5,0.8-0.7,2-0.7,3.7s0.2,2.9,0.7,3.7
					c0.5,0.8,1.1,1.2,1.9,1.2C1406.7,509.4,1407.3,509,1407.8,508.2z"/>
				<path class="st0" d="M1418.4,512.2c-1.1-0.7-2-1.7-2.6-3c-0.6-1.3-0.9-2.9-0.9-4.7s0.3-3.3,0.9-4.7c0.6-1.3,1.5-2.3,2.6-3
					c1.1-0.7,2.4-1,3.8-1c1.4,0,2.7,0.3,3.8,1c1.1,0.7,2,1.7,2.6,3c0.6,1.3,0.9,2.9,0.9,4.7s-0.3,3.3-0.9,4.7
					c-0.6,1.3-1.5,2.3-2.6,3c-1.1,0.7-2.4,1-3.8,1C1420.8,513.2,1419.5,512.9,1418.4,512.2z M1424.1,508.2c0.5-0.8,0.7-2,0.7-3.7
					s-0.2-2.9-0.7-3.7c-0.5-0.8-1.1-1.2-1.9-1.2c-0.8,0-1.4,0.4-1.9,1.2c-0.5,0.8-0.7,2-0.7,3.7s0.2,2.9,0.7,3.7
					c0.5,0.8,1.1,1.2,1.9,1.2C1423,509.4,1423.7,509,1424.1,508.2z"/>
			</g>
		</g>
		<g>
			<g>
				<path class="st0" d="M1206.1,478.8v35.9h-6.7v-30.3h-7.6v-5.6H1206.1z"/>
				<path class="st0" d="M1245.9,499.3c1,1.5,1.5,3.2,1.5,5.1c0,2.2-0.6,4.1-1.8,5.7c-1.2,1.6-2.9,2.9-5.2,3.8
					c-2.2,0.9-4.8,1.3-7.7,1.3s-5.5-0.4-7.7-1.3c-2.2-0.9-3.9-2.1-5.1-3.8c-1.2-1.6-1.8-3.6-1.8-5.7c0-1.9,0.5-3.6,1.5-5.1
					c1-1.5,2.4-2.6,4.3-3.5c-1.4-0.8-2.5-1.8-3.3-3.1c-0.8-1.3-1.2-2.8-1.2-4.4c0-2,0.6-3.8,1.7-5.3c1.1-1.5,2.7-2.7,4.7-3.5
					c2-0.8,4.3-1.2,7-1.2c2.7,0,5,0.4,7,1.2c2,0.8,3.6,2,4.7,3.5c1.1,1.5,1.7,3.3,1.7,5.3c0,1.7-0.4,3.1-1.2,4.4
					c-0.8,1.3-1.9,2.3-3.4,3.1C1243.5,496.7,1244.9,497.8,1245.9,499.3z M1238.6,508.4c1.4-1,2.2-2.4,2.2-4.3c0-1.8-0.7-3.2-2.2-4.2
					c-1.4-1-3.4-1.5-5.8-1.5c-2.5,0-4.4,0.5-5.8,1.5c-1.4,1-2.1,2.4-2.1,4.2c0,1.8,0.7,3.2,2.1,4.3c1.4,1,3.3,1.5,5.8,1.5
					C1235.2,510,1237.1,509.5,1238.6,508.4z M1227.8,484.9c-1.2,0.9-1.8,2.1-1.8,3.7c0,1.5,0.6,2.8,1.8,3.7c1.2,0.9,2.9,1.4,4.9,1.4
					c2.1,0,3.8-0.5,5-1.4c1.2-0.9,1.8-2.1,1.8-3.7c0-1.6-0.6-2.9-1.9-3.7c-1.2-0.9-2.9-1.3-5-1.3S1229,484,1227.8,484.9z"/>
			</g>
			<g>
				<path class="st0" d="M1254.2,513.5c-0.5-0.5-0.8-1.2-0.8-1.9c0-0.8,0.3-1.4,0.8-1.9s1.2-0.7,1.9-0.7c0.8,0,1.4,0.2,2,0.7
					c0.5,0.5,0.8,1.1,0.8,1.9c0,0.8-0.3,1.4-0.8,1.9c-0.5,0.5-1.2,0.8-1.9,0.8C1255.4,514.3,1254.7,514,1254.2,513.5z"/>
				<path class="st0" d="M1263.5,513.4c-1.1-0.7-2-1.7-2.6-3c-0.6-1.3-0.9-2.9-0.9-4.7s0.3-3.3,0.9-4.7c0.6-1.3,1.5-2.3,2.6-3
					c1.1-0.7,2.4-1,3.8-1c1.4,0,2.7,0.3,3.8,1c1.1,0.7,2,1.7,2.6,3c0.6,1.3,0.9,2.9,0.9,4.7s-0.3,3.3-0.9,4.7
					c-0.6,1.3-1.5,2.3-2.6,3c-1.1,0.7-2.4,1-3.8,1C1265.9,514.4,1264.6,514,1263.5,513.4z M1269.2,509.4c0.5-0.8,0.7-2,0.7-3.7
					s-0.2-2.9-0.7-3.7c-0.5-0.8-1.1-1.2-1.9-1.2c-0.8,0-1.4,0.4-1.9,1.2c-0.5,0.8-0.7,2-0.7,3.7s0.2,2.9,0.7,3.7
					c0.5,0.8,1.1,1.2,1.9,1.2C1268.1,510.5,1268.8,510.1,1269.2,509.4z"/>
				<path class="st0" d="M1279.8,513.4c-1.1-0.7-2-1.7-2.6-3c-0.6-1.3-0.9-2.9-0.9-4.7s0.3-3.3,0.9-4.7c0.6-1.3,1.5-2.3,2.6-3
					c1.1-0.7,2.4-1,3.8-1c1.4,0,2.7,0.3,3.8,1c1.1,0.7,2,1.7,2.6,3c0.6,1.3,0.9,2.9,0.9,4.7s-0.3,3.3-0.9,4.7
					c-0.6,1.3-1.5,2.3-2.6,3c-1.1,0.7-2.4,1-3.8,1C1282.2,514.4,1281,514,1279.8,513.4z M1285.5,509.4c0.5-0.8,0.7-2,0.7-3.7
					s-0.2-2.9-0.7-3.7c-0.5-0.8-1.1-1.2-1.9-1.2c-0.8,0-1.4,0.4-1.9,1.2c-0.5,0.8-0.7,2-0.7,3.7s0.2,2.9,0.7,3.7
					c0.5,0.8,1.1,1.2,1.9,1.2C1284.5,510.5,1285.1,510.1,1285.5,509.4z"/>
			</g>
		</g>
	</g>
	<g>
		<path class="st0" d="M1021.1,602.2l-6.8,16.1h-4.8l-6.8-16.1h4.8l4.5,11l4.6-11H1021.1z"/>
		<path class="st0" d="M1038.3,611.6h-12.2c0.2,1,0.7,1.8,1.6,2.4c0.8,0.6,1.8,0.9,3.1,0.9c0.8,0,1.6-0.1,2.2-0.4
			c0.6-0.3,1.3-0.6,1.8-1.2l2.5,2.7c-1.5,1.7-3.7,2.6-6.7,2.6c-1.8,0-3.4-0.4-4.8-1.1c-1.4-0.7-2.5-1.7-3.2-3
			c-0.8-1.3-1.1-2.7-1.1-4.3c0-1.6,0.4-3,1.1-4.3s1.8-2.3,3.1-3c1.3-0.7,2.8-1.1,4.4-1.1c1.6,0,3,0.3,4.3,1c1.3,0.7,2.3,1.7,3,2.9
			c0.7,1.3,1.1,2.7,1.1,4.4C1038.4,610.4,1038.4,610.8,1038.3,611.6z M1027.4,606.4c-0.7,0.6-1.2,1.4-1.3,2.5h7.9
			c-0.2-1-0.6-1.8-1.3-2.4c-0.7-0.6-1.6-0.9-2.6-0.9C1029,605.5,1028.1,605.8,1027.4,606.4z"/>
		<path class="st0" d="M1056.2,603.8c1.2,1.2,1.8,3,1.8,5.3v9.2h-4.7v-8.5c0-1.3-0.3-2.2-0.8-2.9s-1.4-0.9-2.4-0.9
			c-1.2,0-2.1,0.4-2.8,1.1c-0.7,0.7-1,1.8-1,3.3v8h-4.7v-16.1h4.5v1.9c0.6-0.7,1.4-1.2,2.3-1.6c0.9-0.4,1.9-0.6,3-0.6
			C1053.3,602,1054.9,602.6,1056.2,603.8z"/>
		<path class="st0" d="M1078.2,611.6h-12.2c0.2,1,0.7,1.8,1.6,2.4c0.8,0.6,1.8,0.9,3.1,0.9c0.8,0,1.6-0.1,2.2-0.4
			c0.6-0.3,1.3-0.6,1.8-1.2l2.5,2.7c-1.5,1.7-3.7,2.6-6.7,2.6c-1.8,0-3.4-0.4-4.8-1.1c-1.4-0.7-2.5-1.7-3.2-3
			c-0.8-1.3-1.1-2.7-1.1-4.3c0-1.6,0.4-3,1.1-4.3s1.8-2.3,3.1-3c1.3-0.7,2.8-1.1,4.4-1.1c1.6,0,3,0.3,4.3,1c1.3,0.7,2.3,1.7,3,2.9
			c0.7,1.3,1.1,2.7,1.1,4.4C1078.2,610.4,1078.2,610.8,1078.2,611.6z M1067.2,606.4c-0.7,0.6-1.2,1.4-1.3,2.5h7.9
			c-0.2-1-0.6-1.8-1.3-2.4c-0.7-0.6-1.6-0.9-2.6-0.9C1068.8,605.5,1067.9,605.8,1067.2,606.4z"/>
		<path class="st0" d="M1088.1,602.6c1-0.4,2-0.6,3.3-0.6v4.3c-0.5,0-0.9-0.1-1-0.1c-1.3,0-2.4,0.4-3.1,1.1
			c-0.8,0.8-1.1,1.9-1.1,3.4v7.6h-4.7v-16.1h4.5v2.1C1086.4,603.6,1087.1,603,1088.1,602.6z"/>
		<path class="st0" d="M1110.5,596.1v22.3h-4.5v-1.9c-1.2,1.4-2.8,2.1-5,2.1c-1.5,0-2.9-0.3-4.1-1c-1.2-0.7-2.2-1.6-2.9-2.9
			c-0.7-1.3-1.1-2.7-1.1-4.4c0-1.7,0.4-3.1,1.1-4.4c0.7-1.3,1.7-2.2,2.9-2.9c1.2-0.7,2.6-1,4.1-1c2.1,0,3.7,0.7,4.8,2v-7.8H1110.5z
			 M1104.7,613.5c0.8-0.8,1.2-1.9,1.2-3.3c0-1.4-0.4-2.4-1.2-3.3c-0.8-0.8-1.8-1.2-2.9-1.2c-1.2,0-2.2,0.4-3,1.2
			c-0.8,0.8-1.2,1.9-1.2,3.3c0,1.4,0.4,2.4,1.2,3.3c0.8,0.8,1.8,1.2,3,1.2C1102.9,614.7,1103.9,614.3,1104.7,613.5z"/>
		<path class="st0" d="M1110.8,595.8h5l4.1,4.3h-3.7L1110.8,595.8z M1114.8,602.2h4.7v16.1h-4.7V602.2z"/>
	</g>
	<g>
		<g>
			<g>
				<g>
					<path class="st0" d="M1336,564.9v35.9h-6.7v-30.3h-7.6v-5.6H1336z"/>
					<path class="st0" d="M1377.5,592.6h-6.4v8.2h-6.5v-8.2H1345V588l17.7-23.1h7.1l-16.7,22.1h11.7v-7.2h6.3v7.2h6.4V592.6z"/>
				</g>
				<g>
					<path class="st0" d="M1387,598.4c-0.5-0.5-0.8-1.2-0.8-1.9c0-0.8,0.3-1.4,0.8-1.9s1.2-0.7,1.9-0.7c0.8,0,1.4,0.2,2,0.7
						c0.5,0.5,0.8,1.1,0.8,1.9c0,0.8-0.3,1.4-0.8,1.9c-0.5,0.5-1.2,0.8-1.9,0.8C1388.2,599.2,1387.5,598.9,1387,598.4z"/>
					<path class="st0" d="M1407.5,590.7c0.7,0.8,1.1,1.9,1.1,3.1c0,1-0.3,1.9-0.8,2.7c-0.5,0.8-1.3,1.5-2.4,2
						c-1.1,0.5-2.4,0.8-4,0.8c-1.2,0-2.3-0.1-3.5-0.4c-1.2-0.3-2.1-0.7-3-1.2l1.7-3.5c0.7,0.4,1.4,0.8,2.2,1
						c0.8,0.2,1.6,0.4,2.4,0.4c0.8,0,1.5-0.2,1.9-0.5s0.7-0.7,0.7-1.3c0-1.1-0.9-1.6-2.5-1.6h-2v-3l3-3.2h-6.6v-3.6h12.1v3l-3.5,3.7
						C1405.7,589.3,1406.7,589.8,1407.5,590.7z"/>
					<path class="st0" d="M1416,598.3c-1.1-0.7-2-1.7-2.6-3c-0.6-1.3-0.9-2.9-0.9-4.7c0-1.8,0.3-3.3,0.9-4.7c0.6-1.3,1.5-2.3,2.6-3
						c1.1-0.7,2.4-1,3.8-1c1.4,0,2.7,0.3,3.8,1c1.1,0.7,2,1.7,2.6,3c0.6,1.3,0.9,2.9,0.9,4.7c0,1.8-0.3,3.3-0.9,4.7
						c-0.6,1.3-1.5,2.3-2.6,3s-2.4,1-3.8,1C1418.4,599.3,1417.1,599,1416,598.3z M1421.7,594.3c0.5-0.8,0.7-2,0.7-3.7
						c0-1.7-0.2-2.9-0.7-3.7c-0.5-0.8-1.1-1.2-1.9-1.2c-0.8,0-1.4,0.4-1.9,1.2c-0.5,0.8-0.7,2-0.7,3.7c0,1.7,0.2,2.9,0.7,3.7
						c0.5,0.8,1.1,1.2,1.9,1.2C1420.6,595.5,1421.3,595.1,1421.7,594.3z"/>
				</g>
			</g>
			<g>
				<g>
					<path class="st0" d="M1206.1,564.9v35.9h-6.7v-30.3h-7.6v-5.6H1206.1z"/>
					<path class="st0" d="M1231.3,564.9v35.9h-6.7v-30.3h-7.6v-5.6H1231.3z"/>
				</g>
				<g>
					<path class="st0" d="M1249.9,599.6c-0.5-0.5-0.8-1.2-0.8-1.9c0-0.8,0.3-1.4,0.8-1.9s1.2-0.7,1.9-0.7c0.8,0,1.4,0.2,2,0.7
						c0.5,0.5,0.8,1.1,0.8,1.9c0,0.8-0.3,1.4-0.8,1.9c-0.5,0.5-1.2,0.8-1.9,0.8C1251,600.4,1250.4,600.1,1249.9,599.6z"/>
					<path class="st0" d="M1269.8,591.9c0.7,0.8,1.1,1.9,1.1,3.1c0,1-0.3,1.9-0.8,2.7c-0.5,0.8-1.3,1.5-2.4,2
						c-1.1,0.5-2.4,0.8-4,0.8c-1.2,0-2.3-0.1-3.5-0.4c-1.2-0.3-2.1-0.7-3-1.2l1.7-3.5c0.7,0.4,1.4,0.8,2.2,1
						c0.8,0.2,1.6,0.4,2.4,0.4c0.8,0,1.5-0.2,1.9-0.5s0.7-0.7,0.7-1.3c0-1.1-0.9-1.6-2.5-1.6h-2v-3l3-3.2h-6.6v-3.6h12.1v3l-3.5,3.7
						C1268,590.4,1269,591,1269.8,591.9z"/>
					<path class="st0" d="M1277.7,599.5c-1.1-0.7-2-1.7-2.6-3c-0.6-1.3-0.9-2.9-0.9-4.7c0-1.8,0.3-3.3,0.9-4.7
						c0.6-1.3,1.5-2.3,2.6-3c1.1-0.7,2.4-1,3.8-1c1.4,0,2.7,0.3,3.8,1c1.1,0.7,2,1.7,2.6,3c0.6,1.3,0.9,2.9,0.9,4.7
						c0,1.8-0.3,3.3-0.9,4.7c-0.6,1.3-1.5,2.3-2.6,3s-2.4,1-3.8,1C1280.1,600.5,1278.8,600.1,1277.7,599.5z M1283.4,595.5
						c0.5-0.8,0.7-2,0.7-3.7c0-1.7-0.2-2.9-0.7-3.7c-0.5-0.8-1.1-1.2-1.9-1.2c-0.8,0-1.4,0.4-1.9,1.2c-0.5,0.8-0.7,2-0.7,3.7
						c0,1.7,0.2,2.9,0.7,3.7c0.5,0.8,1.1,1.2,1.9,1.2C1282.3,596.6,1283,596.2,1283.4,595.5z"/>
				</g>
			</g>
		</g>
		<g>
			<g>
				<g>
					<path class="st0" d="M1349.5,646v5.6h-26.5v-4.5l14.3-13.5c1.6-1.5,2.7-2.9,3.3-4c0.6-1.1,0.8-2.3,0.8-3.4c0-1.7-0.6-3-1.7-3.8
						s-2.8-1.3-5-1.3c-3.7,0-6.5,1.2-8.4,3.7l-4.7-3.6c1.4-1.9,3.3-3.3,5.7-4.4c2.4-1,5-1.6,8-1.6c3.9,0,7,0.9,9.3,2.8
						s3.5,4.4,3.5,7.5c0,1.9-0.4,3.8-1.2,5.5s-2.4,3.7-4.7,5.8l-9.6,9.1H1349.5z"/>
					<path class="st0" d="M1381.8,646v5.6h-26.5v-4.5l14.3-13.5c1.6-1.5,2.7-2.9,3.3-4c0.6-1.1,0.8-2.3,0.8-3.4c0-1.7-0.6-3-1.7-3.8
						s-2.8-1.3-5-1.3c-3.7,0-6.5,1.2-8.4,3.7l-4.7-3.6c1.4-1.9,3.3-3.3,5.7-4.4c2.4-1,5-1.6,8-1.6c3.9,0,7,0.9,9.3,2.8
						s3.5,4.4,3.5,7.5c0,1.9-0.4,3.8-1.2,5.5s-2.4,3.7-4.7,5.8l-9.6,9.1H1381.8z"/>
				</g>
				<g>
					<path class="st0" d="M1392.8,649.3c-0.5-0.5-0.8-1.2-0.8-1.9c0-0.8,0.3-1.4,0.8-1.9s1.2-0.7,1.9-0.7c0.8,0,1.4,0.2,2,0.7
						c0.5,0.5,0.8,1.1,0.8,1.9c0,0.8-0.3,1.4-0.8,1.9c-0.5,0.5-1.2,0.8-1.9,0.8C1393.9,650.1,1393.3,649.8,1392.8,649.3z"/>
					<path class="st0" d="M1402.1,649.2c-1.1-0.7-2-1.7-2.6-3c-0.6-1.3-0.9-2.9-0.9-4.7c0-1.8,0.3-3.3,0.9-4.7
						c0.6-1.3,1.5-2.3,2.6-3c1.1-0.7,2.4-1,3.8-1c1.4,0,2.7,0.3,3.8,1c1.1,0.7,2,1.7,2.6,3c0.6,1.3,0.9,2.9,0.9,4.7
						c0,1.8-0.3,3.3-0.9,4.7c-0.6,1.3-1.5,2.3-2.6,3s-2.4,1-3.8,1C1404.5,650.2,1403.2,649.8,1402.1,649.2z M1407.8,645.2
						c0.5-0.8,0.7-2,0.7-3.7c0-1.7-0.2-2.9-0.7-3.7c-0.5-0.8-1.1-1.2-1.9-1.2c-0.8,0-1.4,0.4-1.9,1.2c-0.5,0.8-0.7,2-0.7,3.7
						c0,1.7,0.2,2.9,0.7,3.7c0.5,0.8,1.1,1.2,1.9,1.2C1406.7,646.3,1407.3,645.9,1407.8,645.2z"/>
					<path class="st0" d="M1418.4,649.2c-1.1-0.7-2-1.7-2.6-3c-0.6-1.3-0.9-2.9-0.9-4.7c0-1.8,0.3-3.3,0.9-4.7
						c0.6-1.3,1.5-2.3,2.6-3c1.1-0.7,2.4-1,3.8-1c1.4,0,2.7,0.3,3.8,1c1.1,0.7,2,1.7,2.6,3c0.6,1.3,0.9,2.9,0.9,4.7
						c0,1.8-0.3,3.3-0.9,4.7c-0.6,1.3-1.5,2.3-2.6,3s-2.4,1-3.8,1C1420.8,650.2,1419.5,649.8,1418.4,649.2z M1424.1,645.2
						c0.5-0.8,0.7-2,0.7-3.7c0-1.7-0.2-2.9-0.7-3.7c-0.5-0.8-1.1-1.2-1.9-1.2c-0.8,0-1.4,0.4-1.9,1.2c-0.5,0.8-0.7,2-0.7,3.7
						c0,1.7,0.2,2.9,0.7,3.7c0.5,0.8,1.1,1.2,1.9,1.2C1423,646.3,1423.7,645.9,1424.1,645.2z"/>
				</g>
			</g>
			<g>
				<g>
					<path class="st0" d="M1206.1,615.8v35.9h-6.7v-30.3h-7.6v-5.6H1206.1z"/>
					<path class="st0" d="M1245.9,636.3c1,1.5,1.5,3.2,1.5,5.1c0,2.2-0.6,4.1-1.8,5.7c-1.2,1.6-2.9,2.9-5.2,3.8
						c-2.2,0.9-4.8,1.3-7.7,1.3s-5.5-0.4-7.7-1.3c-2.2-0.9-3.9-2.1-5.1-3.8s-1.8-3.6-1.8-5.7c0-1.9,0.5-3.6,1.5-5.1s2.4-2.6,4.3-3.5
						c-1.4-0.8-2.5-1.8-3.3-3.1c-0.8-1.3-1.2-2.8-1.2-4.4c0-2,0.6-3.8,1.7-5.3s2.7-2.7,4.7-3.5s4.3-1.2,7-1.2c2.7,0,5,0.4,7,1.2
						s3.6,2,4.7,3.5c1.1,1.5,1.7,3.3,1.7,5.3c0,1.7-0.4,3.1-1.2,4.4c-0.8,1.3-1.9,2.3-3.4,3.1
						C1243.5,633.7,1244.9,634.8,1245.9,636.3z M1238.6,645.4c1.4-1,2.2-2.4,2.2-4.3c0-1.8-0.7-3.2-2.2-4.2s-3.4-1.5-5.8-1.5
						c-2.5,0-4.4,0.5-5.8,1.5c-1.4,1-2.1,2.4-2.1,4.2c0,1.8,0.7,3.2,2.1,4.3c1.4,1,3.3,1.5,5.8,1.5
						C1235.2,646.9,1237.1,646.4,1238.6,645.4z M1227.8,621.8c-1.2,0.9-1.8,2.1-1.8,3.7c0,1.5,0.6,2.8,1.8,3.7
						c1.2,0.9,2.9,1.4,4.9,1.4c2.1,0,3.8-0.5,5-1.4c1.2-0.9,1.8-2.1,1.8-3.7c0-1.6-0.6-2.9-1.9-3.7c-1.2-0.9-2.9-1.3-5-1.3
						S1229,620.9,1227.8,621.8z"/>
				</g>
				<g>
					<path class="st0" d="M1254.2,650.5c-0.5-0.5-0.8-1.2-0.8-1.9c0-0.8,0.3-1.4,0.8-1.9s1.2-0.7,1.9-0.7c0.8,0,1.4,0.2,2,0.7
						c0.5,0.5,0.8,1.1,0.8,1.9c0,0.8-0.3,1.4-0.8,1.9c-0.5,0.5-1.2,0.8-1.9,0.8C1255.4,651.2,1254.7,651,1254.2,650.5z"/>
					<path class="st0" d="M1263.5,650.3c-1.1-0.7-2-1.7-2.6-3c-0.6-1.3-0.9-2.9-0.9-4.7c0-1.8,0.3-3.3,0.9-4.7
						c0.6-1.3,1.5-2.3,2.6-3c1.1-0.7,2.4-1,3.8-1c1.4,0,2.7,0.3,3.8,1c1.1,0.7,2,1.7,2.6,3c0.6,1.3,0.9,2.9,0.9,4.7
						c0,1.8-0.3,3.3-0.9,4.7c-0.6,1.3-1.5,2.3-2.6,3s-2.4,1-3.8,1C1265.9,651.4,1264.6,651,1263.5,650.3z M1269.2,646.3
						c0.5-0.8,0.7-2,0.7-3.7c0-1.7-0.2-2.9-0.7-3.7c-0.5-0.8-1.1-1.2-1.9-1.2c-0.8,0-1.4,0.4-1.9,1.2c-0.5,0.8-0.7,2-0.7,3.7
						c0,1.7,0.2,2.9,0.7,3.7c0.5,0.8,1.1,1.2,1.9,1.2C1268.1,647.5,1268.8,647.1,1269.2,646.3z"/>
					<path class="st0" d="M1279.8,650.3c-1.1-0.7-2-1.7-2.6-3c-0.6-1.3-0.9-2.9-0.9-4.7c0-1.8,0.3-3.3,0.9-4.7
						c0.6-1.3,1.5-2.3,2.6-3c1.1-0.7,2.4-1,3.8-1c1.4,0,2.7,0.3,3.8,1c1.1,0.7,2,1.7,2.6,3c0.6,1.3,0.9,2.9,0.9,4.7
						c0,1.8-0.3,3.3-0.9,4.7c-0.6,1.3-1.5,2.3-2.6,3s-2.4,1-3.8,1C1282.2,651.4,1281,651,1279.8,650.3z M1285.5,646.3
						c0.5-0.8,0.7-2,0.7-3.7c0-1.7-0.2-2.9-0.7-3.7c-0.5-0.8-1.1-1.2-1.9-1.2c-0.8,0-1.4,0.4-1.9,1.2c-0.5,0.8-0.7,2-0.7,3.7
						c0,1.7,0.2,2.9,0.7,3.7c0.5,0.8,1.1,1.2,1.9,1.2C1284.5,647.5,1285.1,647.1,1285.5,646.3z"/>
				</g>
			</g>
		</g>
	</g>
	<g>
		<path class="st0" d="M1006.6,731.1c-1.3-0.3-2.3-0.7-3.1-1.2l1.6-3.4c0.7,0.5,1.6,0.8,2.6,1.1c1,0.3,2,0.4,3,0.4c2,0,3-0.5,3-1.5
			c0-0.5-0.3-0.8-0.8-1s-1.4-0.4-2.5-0.5c-1.3-0.2-2.4-0.4-3.3-0.7c-0.9-0.3-1.6-0.7-2.2-1.4c-0.6-0.7-0.9-1.6-0.9-2.8
			c0-1,0.3-1.9,0.9-2.7s1.5-1.4,2.6-1.8c1.1-0.4,2.5-0.7,4-0.7c1.1,0,2.3,0.1,3.4,0.4c1.1,0.3,2.1,0.6,2.8,1l-1.6,3.3
			c-1.4-0.8-3-1.2-4.7-1.2c-1,0-1.8,0.1-2.3,0.4s-0.8,0.6-0.8,1.1c0,0.5,0.3,0.9,0.8,1c0.5,0.2,1.4,0.4,2.6,0.6
			c1.3,0.2,2.4,0.5,3.2,0.7s1.6,0.7,2.2,1.4c0.6,0.7,0.9,1.6,0.9,2.8c0,1-0.3,1.9-0.9,2.7c-0.6,0.8-1.5,1.4-2.6,1.8
			c-1.1,0.4-2.5,0.6-4.1,0.6C1009.2,731.6,1007.9,731.4,1006.6,731.1z"/>
		<path class="st0" d="M1033.3,716.7c1.3,1.2,2,3,2,5.4v9.2h-4.4v-2c-0.9,1.5-2.5,2.3-4.9,2.3c-1.2,0-2.3-0.2-3.2-0.6
			s-1.6-1-2.1-1.7c-0.5-0.7-0.7-1.6-0.7-2.5c0-1.5,0.6-2.7,1.7-3.5c1.1-0.9,2.9-1.3,5.2-1.3h3.7c0-1-0.3-1.8-0.9-2.4
			c-0.6-0.5-1.5-0.8-2.8-0.8c-0.9,0-1.7,0.1-2.5,0.4c-0.8,0.3-1.5,0.6-2.1,1.1l-1.7-3.3c0.9-0.6,1.9-1.1,3.2-1.4
			c1.2-0.3,2.5-0.5,3.8-0.5C1030,715,1032,715.5,1033.3,716.7z M1029.3,727.9c0.6-0.4,1.1-0.9,1.3-1.6v-1.7h-3.2
			c-1.9,0-2.9,0.6-2.9,1.9c0,0.6,0.2,1.1,0.7,1.4c0.5,0.3,1.1,0.5,1.9,0.5C1028,728.4,1028.7,728.2,1029.3,727.9z"/>
		<path class="st0" d="M1053.2,716c1.2,0.7,2.2,1.7,2.9,2.9c0.7,1.3,1,2.7,1,4.4c0,1.7-0.4,3.1-1,4.4c-0.7,1.3-1.7,2.2-2.9,2.9
			c-1.2,0.7-2.6,1-4.1,1c-2.2,0-3.9-0.7-5.1-2.1v1.9h-4.5v-22.3h4.7v7.8c1.2-1.3,2.8-2,4.9-2C1050.6,715,1051.9,715.3,1053.2,716z
			 M1051.2,726.5c0.8-0.8,1.2-1.9,1.2-3.3c0-1.4-0.4-2.4-1.2-3.3c-0.8-0.8-1.8-1.2-3-1.2c-1.2,0-2.2,0.4-3,1.2
			c-0.8,0.8-1.2,1.9-1.2,3.3c0,1.4,0.4,2.4,1.2,3.3c0.8,0.8,1.8,1.2,3,1.2C1049.5,727.7,1050.5,727.3,1051.2,726.5z"/>
		<path class="st0" d="M1072.2,716.7c1.3,1.2,2,3,2,5.4v9.2h-4.4v-2c-0.9,1.5-2.5,2.3-4.9,2.3c-1.2,0-2.3-0.2-3.2-0.6
			s-1.6-1-2.1-1.7c-0.5-0.7-0.7-1.6-0.7-2.5c0-1.5,0.6-2.7,1.7-3.5c1.1-0.9,2.9-1.3,5.2-1.3h3.7c0-1-0.3-1.8-0.9-2.4
			c-0.6-0.5-1.5-0.8-2.8-0.8c-0.9,0-1.7,0.1-2.5,0.4c-0.8,0.3-1.5,0.6-2.1,1.1l-1.7-3.3c0.9-0.6,1.9-1.1,3.2-1.4
			c1.2-0.3,2.5-0.5,3.8-0.5C1069,715,1070.9,715.5,1072.2,716.7z M1068.3,727.9c0.6-0.4,1.1-0.9,1.3-1.6v-1.7h-3.2
			c-1.9,0-2.9,0.6-2.9,1.9c0,0.6,0.2,1.1,0.7,1.4c0.5,0.3,1.1,0.5,1.9,0.5C1066.9,728.4,1067.6,728.2,1068.3,727.9z"/>
		<path class="st0" d="M1088.9,730.6c-0.5,0.3-1,0.6-1.7,0.8c-0.7,0.2-1.4,0.3-2.1,0.3c-1.9,0-3.4-0.5-4.5-1.5c-1-1-1.6-2.4-1.6-4.3
			v-6.6h-2.5v-3.6h2.5v-3.9h4.7v3.9h4v3.6h-4v6.6c0,0.7,0.2,1.2,0.5,1.6c0.4,0.4,0.8,0.6,1.5,0.6c0.7,0,1.4-0.2,1.9-0.6
			L1088.9,730.6z"/>
		<path class="st0" d="M1094.1,730.5c-1.3-0.7-2.4-1.7-3.2-3c-0.8-1.3-1.1-2.7-1.1-4.3c0-1.6,0.4-3,1.1-4.3c0.8-1.3,1.8-2.2,3.2-3
			c1.4-0.7,2.9-1.1,4.6-1.1s3.2,0.4,4.6,1.1c1.3,0.7,2.4,1.7,3.1,3c0.8,1.3,1.1,2.7,1.1,4.3c0,1.6-0.4,3-1.1,4.3
			c-0.8,1.3-1.8,2.2-3.1,3c-1.3,0.7-2.9,1.1-4.6,1.1S1095.5,731.2,1094.1,730.5z M1101.7,726.5c0.8-0.8,1.2-1.9,1.2-3.3
			c0-1.4-0.4-2.4-1.2-3.3c-0.8-0.8-1.8-1.2-3-1.2s-2.2,0.4-3,1.2c-0.8,0.8-1.2,1.9-1.2,3.3c0,1.4,0.4,2.4,1.2,3.3
			c0.8,0.8,1.8,1.2,3,1.2S1100.9,727.3,1101.7,726.5z"/>
	</g>
	<g>
		<g>
			<g>
				<path class="st0" d="M1349.5,730.8v5.6h-26.5v-4.5l14.3-13.5c1.6-1.5,2.7-2.9,3.3-4c0.6-1.1,0.8-2.3,0.8-3.4
					c0-1.7-0.6-3-1.7-3.8s-2.8-1.3-5-1.3c-3.7,0-6.5,1.2-8.4,3.7l-4.7-3.6c1.4-1.9,3.3-3.3,5.7-4.4c2.4-1,5-1.6,8-1.6
					c3.9,0,7,0.9,9.3,2.8s3.5,4.4,3.5,7.5c0,1.9-0.4,3.8-1.2,5.5s-2.4,3.7-4.7,5.8l-9.6,9.1H1349.5z"/>
				<path class="st0" d="M1381.8,730.8v5.6h-26.5v-4.5l14.3-13.5c1.6-1.5,2.7-2.9,3.3-4c0.6-1.1,0.8-2.3,0.8-3.4
					c0-1.7-0.6-3-1.7-3.8s-2.8-1.3-5-1.3c-3.7,0-6.5,1.2-8.4,3.7l-4.7-3.6c1.4-1.9,3.3-3.3,5.7-4.4c2.4-1,5-1.6,8-1.6
					c3.9,0,7,0.9,9.3,2.8s3.5,4.4,3.5,7.5c0,1.9-0.4,3.8-1.2,5.5s-2.4,3.7-4.7,5.8l-9.6,9.1H1381.8z"/>
			</g>
			<g>
				<path class="st0" d="M1392.8,734c-0.5-0.5-0.8-1.2-0.8-1.9c0-0.8,0.3-1.4,0.8-1.9s1.2-0.7,1.9-0.7c0.8,0,1.4,0.2,2,0.7
					c0.5,0.5,0.8,1.1,0.8,1.9c0,0.8-0.3,1.4-0.8,1.9c-0.5,0.5-1.2,0.8-1.9,0.8C1393.9,734.8,1393.3,734.5,1392.8,734z"/>
				<path class="st0" d="M1402.1,733.9c-1.1-0.7-2-1.7-2.6-3c-0.6-1.3-0.9-2.9-0.9-4.7c0-1.8,0.3-3.3,0.9-4.7c0.6-1.3,1.5-2.3,2.6-3
					c1.1-0.7,2.4-1,3.8-1c1.4,0,2.7,0.3,3.8,1c1.1,0.7,2,1.7,2.6,3c0.6,1.3,0.9,2.9,0.9,4.7c0,1.8-0.3,3.3-0.9,4.7
					c-0.6,1.3-1.5,2.3-2.6,3s-2.4,1-3.8,1C1404.5,734.9,1403.2,734.6,1402.1,733.9z M1407.8,729.9c0.5-0.8,0.7-2,0.7-3.7
					c0-1.7-0.2-2.9-0.7-3.7c-0.5-0.8-1.1-1.2-1.9-1.2c-0.8,0-1.4,0.4-1.9,1.2c-0.5,0.8-0.7,2-0.7,3.7c0,1.7,0.2,2.9,0.7,3.7
					c0.5,0.8,1.1,1.2,1.9,1.2C1406.7,731.1,1407.3,730.7,1407.8,729.9z"/>
				<path class="st0" d="M1418.4,733.9c-1.1-0.7-2-1.7-2.6-3c-0.6-1.3-0.9-2.9-0.9-4.7c0-1.8,0.3-3.3,0.9-4.7c0.6-1.3,1.5-2.3,2.6-3
					c1.1-0.7,2.4-1,3.8-1c1.4,0,2.7,0.3,3.8,1c1.1,0.7,2,1.7,2.6,3c0.6,1.3,0.9,2.9,0.9,4.7c0,1.8-0.3,3.3-0.9,4.7
					c-0.6,1.3-1.5,2.3-2.6,3s-2.4,1-3.8,1C1420.8,734.9,1419.5,734.6,1418.4,733.9z M1424.1,729.9c0.5-0.8,0.7-2,0.7-3.7
					c0-1.7-0.2-2.9-0.7-3.7c-0.5-0.8-1.1-1.2-1.9-1.2c-0.8,0-1.4,0.4-1.9,1.2c-0.5,0.8-0.7,2-0.7,3.7c0,1.7,0.2,2.9,0.7,3.7
					c0.5,0.8,1.1,1.2,1.9,1.2C1423,731.1,1423.7,730.7,1424.1,729.9z"/>
			</g>
		</g>
		<g>
			<g>
				<path class="st0" d="M1206.1,700.5v35.9h-6.7v-30.3h-7.6v-5.6H1206.1z"/>
				<path class="st0" d="M1245.9,721c1,1.5,1.5,3.2,1.5,5.1c0,2.2-0.6,4.1-1.8,5.7c-1.2,1.6-2.9,2.9-5.2,3.8
					c-2.2,0.9-4.8,1.3-7.7,1.3s-5.5-0.4-7.7-1.3c-2.2-0.9-3.9-2.1-5.1-3.8s-1.8-3.6-1.8-5.7c0-1.9,0.5-3.6,1.5-5.1s2.4-2.6,4.3-3.5
					c-1.4-0.8-2.5-1.8-3.3-3.1c-0.8-1.3-1.2-2.8-1.2-4.4c0-2,0.6-3.8,1.7-5.3s2.7-2.7,4.7-3.5s4.3-1.2,7-1.2c2.7,0,5,0.4,7,1.2
					s3.6,2,4.7,3.5c1.1,1.5,1.7,3.3,1.7,5.3c0,1.7-0.4,3.1-1.2,4.4c-0.8,1.3-1.9,2.3-3.4,3.1C1243.5,718.4,1244.9,719.5,1245.9,721z
					 M1238.6,730.1c1.4-1,2.2-2.4,2.2-4.3c0-1.8-0.7-3.2-2.2-4.2s-3.4-1.5-5.8-1.5c-2.5,0-4.4,0.5-5.8,1.5c-1.4,1-2.1,2.4-2.1,4.2
					c0,1.8,0.7,3.2,2.1,4.3c1.4,1,3.3,1.5,5.8,1.5C1235.2,731.7,1237.1,731.2,1238.6,730.1z M1227.8,706.6c-1.2,0.9-1.8,2.1-1.8,3.7
					c0,1.5,0.6,2.8,1.8,3.7c1.2,0.9,2.9,1.4,4.9,1.4c2.1,0,3.8-0.5,5-1.4c1.2-0.9,1.8-2.1,1.8-3.7c0-1.6-0.6-2.9-1.9-3.7
					c-1.2-0.9-2.9-1.3-5-1.3S1229,705.7,1227.8,706.6z"/>
			</g>
			<g>
				<path class="st0" d="M1254.2,735.2c-0.5-0.5-0.8-1.2-0.8-1.9c0-0.8,0.3-1.4,0.8-1.9s1.2-0.7,1.9-0.7c0.8,0,1.4,0.2,2,0.7
					c0.5,0.5,0.8,1.1,0.8,1.9c0,0.8-0.3,1.4-0.8,1.9c-0.5,0.5-1.2,0.8-1.9,0.8C1255.4,736,1254.7,735.7,1254.2,735.2z"/>
				<path class="st0" d="M1263.5,735.1c-1.1-0.7-2-1.7-2.6-3c-0.6-1.3-0.9-2.9-0.9-4.7c0-1.8,0.3-3.3,0.9-4.7c0.6-1.3,1.5-2.3,2.6-3
					c1.1-0.7,2.4-1,3.8-1c1.4,0,2.7,0.3,3.8,1c1.1,0.7,2,1.7,2.6,3c0.6,1.3,0.9,2.9,0.9,4.7c0,1.8-0.3,3.3-0.9,4.7
					c-0.6,1.3-1.5,2.3-2.6,3s-2.4,1-3.8,1C1265.9,736.1,1264.6,735.7,1263.5,735.1z M1269.2,731.1c0.5-0.8,0.7-2,0.7-3.7
					c0-1.7-0.2-2.9-0.7-3.7c-0.5-0.8-1.1-1.2-1.9-1.2c-0.8,0-1.4,0.4-1.9,1.2c-0.5,0.8-0.7,2-0.7,3.7c0,1.7,0.2,2.9,0.7,3.7
					c0.5,0.8,1.1,1.2,1.9,1.2C1268.1,732.2,1268.8,731.8,1269.2,731.1z"/>
				<path class="st0" d="M1279.8,735.1c-1.1-0.7-2-1.7-2.6-3c-0.6-1.3-0.9-2.9-0.9-4.7c0-1.8,0.3-3.3,0.9-4.7c0.6-1.3,1.5-2.3,2.6-3
					c1.1-0.7,2.4-1,3.8-1c1.4,0,2.7,0.3,3.8,1c1.1,0.7,2,1.7,2.6,3c0.6,1.3,0.9,2.9,0.9,4.7c0,1.8-0.3,3.3-0.9,4.7
					c-0.6,1.3-1.5,2.3-2.6,3s-2.4,1-3.8,1C1282.2,736.1,1281,735.7,1279.8,735.1z M1285.5,731.1c0.5-0.8,0.7-2,0.7-3.7
					c0-1.7-0.2-2.9-0.7-3.7c-0.5-0.8-1.1-1.2-1.9-1.2c-0.8,0-1.4,0.4-1.9,1.2c-0.5,0.8-0.7,2-0.7,3.7c0,1.7,0.2,2.9,0.7,3.7
					c0.5,0.8,1.1,1.2,1.9,1.2C1284.5,732.2,1285.1,731.8,1285.5,731.1z"/>
			</g>
		</g>
	</g>
	<g>
		<path class="st0" d="M1021.5,794.1v22.3h-4.5v-1.9c-1.2,1.4-2.8,2.1-5,2.1c-1.5,0-2.9-0.3-4.1-1c-1.2-0.7-2.2-1.6-2.9-2.9
			c-0.7-1.3-1.1-2.7-1.1-4.4c0-1.7,0.4-3.1,1.1-4.4c0.7-1.3,1.7-2.2,2.9-2.9c1.2-0.7,2.6-1,4.1-1c2.1,0,3.7,0.7,4.8,2v-7.8H1021.5z
			 M1015.8,811.6c0.8-0.8,1.2-1.9,1.2-3.3c0-1.4-0.4-2.4-1.2-3.3c-0.8-0.8-1.8-1.2-2.9-1.2c-1.2,0-2.2,0.4-3,1.2
			c-0.8,0.8-1.2,1.9-1.2,3.3c0,1.4,0.4,2.4,1.2,3.3c0.8,0.8,1.8,1.2,3,1.2C1014,812.8,1015,812.4,1015.8,811.6z"/>
		<path class="st0" d="M1029,815.6c-1.3-0.7-2.4-1.7-3.2-3c-0.8-1.3-1.1-2.7-1.1-4.3c0-1.6,0.4-3,1.1-4.3c0.8-1.3,1.8-2.2,3.2-3
			c1.4-0.7,2.9-1.1,4.6-1.1s3.2,0.4,4.6,1.1c1.3,0.7,2.4,1.7,3.1,3c0.8,1.3,1.1,2.7,1.1,4.3c0,1.6-0.4,3-1.1,4.3
			c-0.8,1.3-1.8,2.2-3.1,3c-1.3,0.7-2.9,1.1-4.6,1.1S1030.3,816.3,1029,815.6z M1036.5,811.6c0.8-0.8,1.2-1.9,1.2-3.3
			c0-1.4-0.4-2.4-1.2-3.3c-0.8-0.8-1.8-1.2-3-1.2s-2.2,0.4-3,1.2c-0.8,0.8-1.2,1.9-1.2,3.3c0,1.4,0.4,2.4,1.2,3.3
			c0.8,0.8,1.8,1.2,3,1.2S1035.7,812.4,1036.5,811.6z"/>
		<path class="st0" d="M1071,801.8c1.2,1.2,1.8,3,1.8,5.4v9.2h-4.7v-8.5c0-1.3-0.3-2.2-0.8-2.9c-0.5-0.6-1.3-0.9-2.3-0.9
			c-1.1,0-2,0.4-2.6,1.1c-0.6,0.7-1,1.8-1,3.2v8.1h-4.7v-8.5c0-2.5-1-3.8-3.1-3.8c-1.1,0-1.9,0.4-2.6,1.1s-1,1.8-1,3.2v8.1h-4.7
			v-16.1h4.5v1.9c0.6-0.7,1.3-1.2,2.2-1.6c0.9-0.4,1.8-0.5,2.9-0.5c1.1,0,2.2,0.2,3.1,0.7s1.7,1.1,2.2,2c0.7-0.8,1.5-1.5,2.5-2
			c1-0.5,2.1-0.7,3.3-0.7C1068.2,800,1069.8,800.6,1071,801.8z"/>
		<path class="st0" d="M1092.9,809.6h-12.2c0.2,1,0.7,1.8,1.6,2.4c0.8,0.6,1.8,0.9,3.1,0.9c0.8,0,1.6-0.1,2.2-0.4
			c0.6-0.3,1.3-0.6,1.8-1.2l2.5,2.7c-1.5,1.7-3.7,2.6-6.7,2.6c-1.8,0-3.4-0.4-4.8-1.1c-1.4-0.7-2.5-1.7-3.2-3
			c-0.8-1.3-1.1-2.7-1.1-4.3c0-1.6,0.4-3,1.1-4.3s1.8-2.3,3.1-3c1.3-0.7,2.8-1.1,4.4-1.1c1.6,0,3,0.3,4.3,1c1.3,0.7,2.3,1.7,3,2.9
			c0.7,1.3,1.1,2.7,1.1,4.4C1093,808.4,1092.9,808.9,1092.9,809.6z M1081.9,804.4c-0.7,0.6-1.2,1.4-1.3,2.5h7.9
			c-0.2-1-0.6-1.8-1.3-2.4c-0.7-0.6-1.6-0.9-2.6-0.9C1083.5,803.5,1082.7,803.8,1081.9,804.4z"/>
		<path class="st0" d="M1110.7,801.8c1.2,1.2,1.8,3,1.8,5.3v9.2h-4.7v-8.5c0-1.3-0.3-2.2-0.8-2.9s-1.4-0.9-2.4-0.9
			c-1.2,0-2.1,0.4-2.8,1.1c-0.7,0.7-1,1.8-1,3.3v8h-4.7v-16.1h4.5v1.9c0.6-0.7,1.4-1.2,2.3-1.6c0.9-0.4,1.9-0.6,3-0.6
			C1107.9,800,1109.5,800.6,1110.7,801.8z"/>
		<path class="st0" d="M1117.1,797.2c-0.5-0.5-0.8-1.1-0.8-1.9c0-0.7,0.3-1.4,0.8-1.9c0.5-0.5,1.2-0.8,2.1-0.8
			c0.9,0,1.6,0.2,2.1,0.7c0.5,0.5,0.8,1.1,0.8,1.8c0,0.8-0.3,1.4-0.8,1.9c-0.5,0.5-1.2,0.8-2.1,0.8
			C1118.3,798,1117.6,797.7,1117.1,797.2z M1116.8,800.2h4.7v16.1h-4.7V800.2z"/>
		<path class="st0" d="M1129,815.6c-1.4-0.7-2.4-1.7-3.2-3c-0.8-1.3-1.2-2.7-1.2-4.3c0-1.6,0.4-3,1.2-4.3c0.8-1.3,1.8-2.2,3.2-3
			c1.4-0.7,2.9-1.1,4.6-1.1c1.7,0,3.2,0.4,4.5,1.1c1.3,0.7,2.2,1.7,2.8,3l-3.6,1.9c-0.8-1.5-2-2.2-3.6-2.2c-1.2,0-2.2,0.4-3,1.2
			c-0.8,0.8-1.2,1.9-1.2,3.3s0.4,2.5,1.2,3.3c0.8,0.8,1.8,1.2,3,1.2c1.6,0,2.8-0.7,3.6-2.2l3.6,2c-0.6,1.3-1.5,2.3-2.8,3
			c-1.3,0.7-2.8,1.1-4.5,1.1C1131.9,816.6,1130.4,816.3,1129,815.6z"/>
		<path class="st0" d="M1155.8,801.8c1.3,1.2,2,3,2,5.4v9.2h-4.4v-2c-0.9,1.5-2.5,2.3-4.9,2.3c-1.2,0-2.3-0.2-3.2-0.6
			s-1.6-1-2.1-1.7c-0.5-0.7-0.7-1.6-0.7-2.5c0-1.5,0.6-2.7,1.7-3.5c1.1-0.9,2.9-1.3,5.2-1.3h3.7c0-1-0.3-1.8-0.9-2.4
			c-0.6-0.5-1.5-0.8-2.8-0.8c-0.9,0-1.7,0.1-2.5,0.4c-0.8,0.3-1.5,0.6-2.1,1.1l-1.7-3.3c0.9-0.6,1.9-1.1,3.2-1.4
			c1.2-0.3,2.5-0.5,3.8-0.5C1152.6,800,1154.5,800.6,1155.8,801.8z M1151.9,812.9c0.6-0.4,1.1-0.9,1.3-1.6v-1.7h-3.2
			c-1.9,0-2.9,0.6-2.9,1.9c0,0.6,0.2,1.1,0.7,1.4c0.5,0.3,1.1,0.5,1.9,0.5C1150.5,813.5,1151.2,813.3,1151.9,812.9z"/>
	</g>
	<g>
		<g>
			<g>
				<path class="st0" d="M1349.5,815.8v5.6h-26.5V817l14.3-13.5c1.6-1.5,2.7-2.9,3.3-4c0.6-1.1,0.8-2.3,0.8-3.4c0-1.7-0.6-3-1.7-3.8
					s-2.8-1.3-5-1.3c-3.7,0-6.5,1.2-8.4,3.7l-4.7-3.6c1.4-1.9,3.3-3.3,5.7-4.4c2.4-1,5-1.6,8-1.6c3.9,0,7,0.9,9.3,2.8
					s3.5,4.4,3.5,7.5c0,1.9-0.4,3.8-1.2,5.5s-2.4,3.7-4.7,5.8l-9.6,9.1H1349.5z"/>
				<path class="st0" d="M1381.8,815.8v5.6h-26.5V817l14.3-13.5c1.6-1.5,2.7-2.9,3.3-4c0.6-1.1,0.8-2.3,0.8-3.4c0-1.7-0.6-3-1.7-3.8
					s-2.8-1.3-5-1.3c-3.7,0-6.5,1.2-8.4,3.7l-4.7-3.6c1.4-1.9,3.3-3.3,5.7-4.4c2.4-1,5-1.6,8-1.6c3.9,0,7,0.9,9.3,2.8
					s3.5,4.4,3.5,7.5c0,1.9-0.4,3.8-1.2,5.5s-2.4,3.7-4.7,5.8l-9.6,9.1H1381.8z"/>
			</g>
			<g>
				<path class="st0" d="M1392.8,819.1c-0.5-0.5-0.8-1.2-0.8-1.9c0-0.8,0.3-1.4,0.8-1.9s1.2-0.7,1.9-0.7c0.8,0,1.4,0.2,2,0.7
					c0.5,0.5,0.8,1.1,0.8,1.9c0,0.8-0.3,1.4-0.8,1.9c-0.5,0.5-1.2,0.8-1.9,0.8C1393.9,819.9,1393.3,819.6,1392.8,819.1z"/>
				<path class="st0" d="M1402.1,818.9c-1.1-0.7-2-1.7-2.6-3c-0.6-1.3-0.9-2.9-0.9-4.7c0-1.8,0.3-3.3,0.9-4.7c0.6-1.3,1.5-2.3,2.6-3
					c1.1-0.7,2.4-1,3.8-1c1.4,0,2.7,0.3,3.8,1c1.1,0.7,2,1.7,2.6,3c0.6,1.3,0.9,2.9,0.9,4.7c0,1.8-0.3,3.3-0.9,4.7
					c-0.6,1.3-1.5,2.3-2.6,3s-2.4,1-3.8,1C1404.5,820,1403.2,819.6,1402.1,818.9z M1407.8,815c0.5-0.8,0.7-2,0.7-3.7
					c0-1.7-0.2-2.9-0.7-3.7c-0.5-0.8-1.1-1.2-1.9-1.2c-0.8,0-1.4,0.4-1.9,1.2c-0.5,0.8-0.7,2-0.7,3.7c0,1.7,0.2,2.9,0.7,3.7
					c0.5,0.8,1.1,1.2,1.9,1.2C1406.7,816.1,1407.3,815.7,1407.8,815z"/>
				<path class="st0" d="M1418.4,818.9c-1.1-0.7-2-1.7-2.6-3c-0.6-1.3-0.9-2.9-0.9-4.7c0-1.8,0.3-3.3,0.9-4.7c0.6-1.3,1.5-2.3,2.6-3
					c1.1-0.7,2.4-1,3.8-1c1.4,0,2.7,0.3,3.8,1c1.1,0.7,2,1.7,2.6,3c0.6,1.3,0.9,2.9,0.9,4.7c0,1.8-0.3,3.3-0.9,4.7
					c-0.6,1.3-1.5,2.3-2.6,3s-2.4,1-3.8,1C1420.8,820,1419.5,819.6,1418.4,818.9z M1424.1,815c0.5-0.8,0.7-2,0.7-3.7
					c0-1.7-0.2-2.9-0.7-3.7c-0.5-0.8-1.1-1.2-1.9-1.2c-0.8,0-1.4,0.4-1.9,1.2c-0.5,0.8-0.7,2-0.7,3.7c0,1.7,0.2,2.9,0.7,3.7
					c0.5,0.8,1.1,1.2,1.9,1.2C1423,816.1,1423.7,815.7,1424.1,815z"/>
			</g>
		</g>
		<g>
			<g>
				<path class="st0" d="M1206.1,785.6v35.9h-6.7v-30.3h-7.6v-5.6H1206.1z"/>
				<path class="st0" d="M1245.9,806c1,1.5,1.5,3.2,1.5,5.1c0,2.2-0.6,4.1-1.8,5.7c-1.2,1.6-2.9,2.9-5.2,3.8
					c-2.2,0.9-4.8,1.3-7.7,1.3s-5.5-0.4-7.7-1.3c-2.2-0.9-3.9-2.1-5.1-3.8s-1.8-3.6-1.8-5.7c0-1.9,0.5-3.6,1.5-5.1s2.4-2.6,4.3-3.5
					c-1.4-0.8-2.5-1.8-3.3-3.1c-0.8-1.3-1.2-2.8-1.2-4.4c0-2,0.6-3.8,1.7-5.3s2.7-2.7,4.7-3.5s4.3-1.2,7-1.2c2.7,0,5,0.4,7,1.2
					s3.6,2,4.7,3.5c1.1,1.5,1.7,3.3,1.7,5.3c0,1.7-0.4,3.1-1.2,4.4c-0.8,1.3-1.9,2.3-3.4,3.1C1243.5,803.4,1244.9,804.6,1245.9,806z
					 M1238.6,815.2c1.4-1,2.2-2.4,2.2-4.3c0-1.8-0.7-3.2-2.2-4.2s-3.4-1.5-5.8-1.5c-2.5,0-4.4,0.5-5.8,1.5c-1.4,1-2.1,2.4-2.1,4.2
					c0,1.8,0.7,3.2,2.1,4.3c1.4,1,3.3,1.5,5.8,1.5C1235.2,816.7,1237.1,816.2,1238.6,815.2z M1227.8,791.6c-1.2,0.9-1.8,2.1-1.8,3.7
					c0,1.5,0.6,2.8,1.8,3.7c1.2,0.9,2.9,1.4,4.9,1.4c2.1,0,3.8-0.5,5-1.4c1.2-0.9,1.8-2.1,1.8-3.7c0-1.6-0.6-2.9-1.9-3.7
					c-1.2-0.9-2.9-1.3-5-1.3S1229,790.7,1227.8,791.6z"/>
			</g>
			<g>
				<path class="st0" d="M1254.2,820.3c-0.5-0.5-0.8-1.2-0.8-1.9c0-0.8,0.3-1.4,0.8-1.9s1.2-0.7,1.9-0.7c0.8,0,1.4,0.2,2,0.7
					c0.5,0.5,0.8,1.1,0.8,1.9c0,0.8-0.3,1.4-0.8,1.9c-0.5,0.5-1.2,0.8-1.9,0.8C1255.4,821,1254.7,820.8,1254.2,820.3z"/>
				<path class="st0" d="M1263.5,820.1c-1.1-0.7-2-1.7-2.6-3c-0.6-1.3-0.9-2.9-0.9-4.7c0-1.8,0.3-3.3,0.9-4.7c0.6-1.3,1.5-2.3,2.6-3
					c1.1-0.7,2.4-1,3.8-1c1.4,0,2.7,0.3,3.8,1c1.1,0.7,2,1.7,2.6,3c0.6,1.3,0.9,2.9,0.9,4.7c0,1.8-0.3,3.3-0.9,4.7
					c-0.6,1.3-1.5,2.3-2.6,3s-2.4,1-3.8,1C1265.9,821.1,1264.6,820.8,1263.5,820.1z M1269.2,816.1c0.5-0.8,0.7-2,0.7-3.7
					c0-1.7-0.2-2.9-0.7-3.7c-0.5-0.8-1.1-1.2-1.9-1.2c-0.8,0-1.4,0.4-1.9,1.2c-0.5,0.8-0.7,2-0.7,3.7c0,1.7,0.2,2.9,0.7,3.7
					c0.5,0.8,1.1,1.2,1.9,1.2C1268.1,817.3,1268.8,816.9,1269.2,816.1z"/>
				<path class="st0" d="M1279.8,820.1c-1.1-0.7-2-1.7-2.6-3c-0.6-1.3-0.9-2.9-0.9-4.7c0-1.8,0.3-3.3,0.9-4.7c0.6-1.3,1.5-2.3,2.6-3
					c1.1-0.7,2.4-1,3.8-1c1.4,0,2.7,0.3,3.8,1c1.1,0.7,2,1.7,2.6,3c0.6,1.3,0.9,2.9,0.9,4.7c0,1.8-0.3,3.3-0.9,4.7
					c-0.6,1.3-1.5,2.3-2.6,3s-2.4,1-3.8,1C1282.2,821.1,1281,820.8,1279.8,820.1z M1285.5,816.1c0.5-0.8,0.7-2,0.7-3.7
					c0-1.7-0.2-2.9-0.7-3.7c-0.5-0.8-1.1-1.2-1.9-1.2c-0.8,0-1.4,0.4-1.9,1.2c-0.5,0.8-0.7,2-0.7,3.7c0,1.7,0.2,2.9,0.7,3.7
					c0.5,0.8,1.1,1.2,1.9,1.2C1284.5,817.3,1285.1,816.9,1285.5,816.1z"/>
			</g>
		</g>
	</g>
</g>
<g>
	<g>
		<g>
			<path class="st0" d="M1171.1,973.2c-1.4,0-2.5,1.1-2.5,2.5c0,1.4,1.1,2.5,2.5,2.5c1.4,0,2.5-1.1,2.5-2.5
				C1173.6,974.3,1172.5,973.2,1171.1,973.2z"/>
		</g>
		<g>
			<path class="st0" d="M1160,976.4c-5.8,0-10.5,4.7-10.5,10.5c0,5.8,4.7,10.5,10.5,10.5c5.8,0,10.5-4.7,10.5-10.5
				C1170.5,981.1,1165.8,976.4,1160,976.4z M1160,993.7c-3.7,0-6.7-3-6.7-6.7c0-3.7,3-6.7,6.7-6.7c3.7,0,6.7,3,6.7,6.7
				C1166.7,990.6,1163.7,993.7,1160,993.7z"/>
		</g>
		<g>
			<path class="st0" d="M1168.3,1008.3h-17c-7.1,0-12.8-5.7-12.8-12.8v-17c0-7.1,5.7-12.8,12.8-12.8h17c7.1,0,12.8,5.7,12.8,12.8v17
				C1181.1,1002.5,1175.4,1008.3,1168.3,1008.3z M1151.3,969.6c-4.9,0-8.8,3.9-8.8,8.8v17c0,4.9,3.9,8.8,8.8,8.8h17
				c4.9,0,8.8-3.9,8.8-8.8v-17c0-4.9-3.9-8.8-8.8-8.8H1151.3z"/>
		</g>
	</g>
	<g>
		<path class="st0" d="M1281.5,988.2l1.2-7.7h-7.4v-5c0-2.1,1-4.2,4.4-4.2h3.4v-6.6c0,0-3.1-0.5-6-0.5c-6.1,0-10.1,3.7-10.1,10.4
			v5.9h-6.8v7.7h6.8v18.7h8.3v-18.7H1281.5z"/>
	</g>
	<g>
		<g>
			<path class="st0" d="M802.9,983c0.3-0.4,0.3-0.8,0.3-1.1c0.6-5.3,1.1-10.6,1.6-16c0.1-0.7,0.3-0.8,0.9-0.7c3.1,0.4,6.1,0.7,9.2,1
				c0.6,0.1,0.7,0.3,0.7,0.8c-0.6,5.9-1.3,11.8-1.9,17.7c-0.3,2.9-0.6,5.9-0.9,8.8c0,0.4-0.1,0.8-0.3,1.2c-1.9,4.2-3.7,8.4-5.6,12.5
				c-0.2,0.5-0.5,0.7-1.1,0.6c-8.4-1.8-16.9-3.6-25.4-5.4c-0.6-0.1-0.8-0.4-0.9-1c-0.8-3.8-1.6-7.6-2.4-11.3
				c-0.1-0.6,0.1-0.7,0.6-0.8c4.6-1,9.2-2,13.8-2.9c0.6-0.1,0.8-0.3,0.6-0.9c-1-4.7-2-9.4-3-14c-0.2-1.1-0.2-1.1,0.9-1.4
				c2.9-0.6,5.8-1.2,8.6-1.9c0.7-0.2,0.9,0,1.1,0.7c0.9,4.6,1.9,9.2,2.9,13.9C802.7,982.8,802.8,982.8,802.9,983z M801.1,992.2
				c0,1,0.6,1.7,1.8,1.7c0.9,0.1,1.7-0.7,1.7-1.8c0.1-0.9-0.8-1.8-1.8-1.8C801.9,990.3,801.1,991.2,801.1,992.2z M793.5,991
				c0,1.2,0.6,1.8,1.8,1.8c1,0,1.7-0.7,1.8-1.7c0-0.9-0.8-1.7-1.8-1.8C794.2,989.3,793.5,989.9,793.5,991z"/>
		</g>
	</g>
	<g>
		<g>
			<path class="st0" d="M903.4,1005.1c0.2-1.6,0.4-3.6,0.7-5.5c0.4-3.1,0.8-6.3,1.1-9.4c0.4-3.2,0.8-6.3,1.2-9.5
				c0.3-2.8,0.7-5.5,1-8.3c0.2-1.5,0.3-3.1,0.6-4.6c0.3-1.5,1.4-2.3,2.9-2.3c1.2,0,2.3,0.2,3.5,0.4c5,0.8,10.1,1.6,15.1,2.4
				c3.1,0.5,6.1,0.9,9.2,1.5c0.7,0.1,1.4,0.4,2,0.8c1.3,0.9,1.6,2.4,0.9,3.8c-3.6,6.8-7.1,13.6-10.7,20.5c-1.3,2.4-2.6,4.8-3.8,7.3
				c-1,2-2.6,2.9-4.7,3.2c-4,0.6-8,1.4-12.1,2.1c-1.3,0.2-2.5,0.4-3.8,0.6C904.5,1008.5,903.4,1007.6,903.4,1005.1z M913.6,982.5
				c0.2,0,0.3,0,0.4,0c5.3,0,10.6,0,15.9,0c1.1,0,2-0.7,2.3-1.8c0.2-0.8,0.4-1.6,0.5-2.4c0.2-0.9,0.4-1.7,0.6-2.7
				c-0.3,0-0.5,0-0.7,0c-3.2,0-6.3,0-9.5,0c-2,0-3.9,0-5.9,0c-1.4,0-2.2,0.7-2.5,2c-0.1,0.2-0.1,0.4-0.1,0.6
				C914.2,979.7,913.9,981.1,913.6,982.5z M928.2,983.8c-0.2,0-0.2-0.1-0.3-0.1c-4.4,0-8.8,0-13.2,0c-1.2,0-2.1,0.8-2.3,2
				c-0.2,0.8-0.3,1.5-0.5,2.3c-0.2,0.8-0.3,1.6-0.5,2.5c0.3,0,0.4,0,0.6,0c4.1,0,8.3,0,12.4,0c0.2,0,0.5,0,0.7,0
				c0.9-0.1,1.6-0.6,1.9-1.5C927.5,987.3,927.8,985.6,928.2,983.8z M909.1,998.7c2,0,3.9,0,5.7,0c1.2,0,1.9-0.7,2.2-1.8
				c0.3-1,0.5-2.1,0.7-3.1c0.1-0.6,0.3-1.2,0.4-1.9c-0.8,0-1.5,0-2.2,0c-1.1,0-2.2,0-3.3,0c-1.4,0-2.2,0.8-2.5,2.1
				c-0.1,0.4-0.2,0.7-0.2,1.1C909.6,996.3,909.4,997.4,909.1,998.7z"/>
		</g>
	</g>
	<g>
		<g>
			<path class="st0" d="M1018.5,973c0.2-2.9,1.2-5.4,3.1-7.5c0.8-0.9,1.7-1.8,2.6-2.6c0.8-0.8,1.8-0.9,2.6-0.1
				c2.6,2.5,5.1,5,7.6,7.6c0.8,0.8,0.7,1.8-0.1,2.6c-1.1,1.2-2.3,2.3-3.4,3.4c-2.5,2.4-2.6,4-0.5,6.7c3.2,4.2,7.1,7.9,11.3,11
				c1.8,1.3,3.7,1.2,5.3-0.4c1.3-1.2,2.4-2.5,3.7-3.7c1.3-1.3,2-1.3,3.3-0.1c2.4,2.3,4.7,4.7,7.1,7.1c1,1.1,1,1.9,0,3
				c-2.4,2.6-5,4.9-8.8,4.9c-2.1,0-4.2-0.5-6.2-1.2c-7.9-2.8-14.1-8-19.4-14.3c-3.2-3.8-5.8-8-7.3-12.8
				C1019,975.4,1018.8,974.2,1018.5,973z"/>
		</g>
	</g>
	<g>
		<g>
			<path class="st0" d="M1397.9,966.8c7.5,0,14.9,0,22.4,0c3.6,0,6.5,1.9,7.6,5.1c0.3,0.9,0.4,1.8,0.4,2.7c0,9,0,17.9,0,26.9
				c0,4.2-2.8,6.9-5.5,7.6c-0.8,0.2-1.6,0.3-2.4,0.3c-11.3,0-22.7,0-34,0c-3.7,0-7.4,0-11.1,0c-2.3,0-4.4-0.8-5.9-2.6
				c-1.3-1.5-1.9-3.2-1.9-5.2c0-6.2,0-12.5,0-18.7c0-2.8,0-5.6,0-8.3c0-4.5,3.2-7.8,7.7-7.8c4.4-0.1,8.7,0,13.1,0
				C1391.5,966.8,1394.7,966.8,1397.9,966.8C1397.9,966.8,1397.9,966.8,1397.9,966.8z M1373.2,970.3c0.4,0.4,0.8,0.7,1.2,1
				c7.7,6.3,15.4,12.7,23.1,19c0.4,0.3,0.6,0.3,1,0c7.4-6.1,14.8-12.2,22.2-18.3c0.7-0.5,1.3-1.1,2-1.7c-0.8-0.4-1.5-0.5-2.2-0.5
				c-10.6,0-21.2,0-31.7,0c-4.5,0-9,0-13.5,0C1374.6,969.8,1373.9,969.9,1373.2,970.3z M1422.6,1006c0-0.1,0-0.2,0-0.3
				c-0.1-0.1-0.2-0.1-0.3-0.2c-5.7-5.4-11.5-10.8-17.2-16.2c-0.3-0.3-0.5-0.3-0.9,0c-1.7,1.4-3.4,2.8-5.1,4.3
				c-0.9,0.7-1.6,0.7-2.4,0.1c-1.7-1.4-3.4-2.8-5.1-4.2c-0.4-0.4-0.7-0.4-1.1,0c-5.6,5.3-11.3,10.6-16.9,16
				c-0.1,0.1-0.3,0.3-0.5,0.6c0.7,0.1,1.2,0.3,1.7,0.3c1,0,2,0,3,0c10.5,0,21,0,31.5,0c3.8,0,7.6,0,11.4,0
				C1421.4,1006.3,1422,1006.1,1422.6,1006z M1371,972.4c-0.4,0.7-0.5,1.4-0.5,2.1c0,5.5,0,11,0,16.4c0,3.6,0,7.2,0,10.7
				c0,0.7,0.1,1.3,0.5,2c5.9-5.6,11.8-11.1,17.7-16.7C1382.8,982.1,1376.9,977.3,1371,972.4z M1424.8,1003.6c0.1,0,0.2,0,0.2,0
				c0.1-0.7,0.3-1.4,0.3-2c0-5.6,0-11.2,0-16.8c0-3.4,0-6.8,0-10.3c0-0.7-0.1-1.4-0.5-2c-5.9,4.9-11.8,9.7-17.7,14.6
				C1413.1,992.6,1418.9,998.1,1424.8,1003.6z"/>
		</g>
	</g>
	<g>
		<g>
			<path class="st0" d="M694.3,1005.9c-0.5-0.8-0.9-1.5-1.4-2.2c-2.8-4.5-5.4-9.1-7.8-13.8c-1.4-2.7-2.7-5.4-3.6-8.3
				c-0.4-1.2-0.7-2.5-0.9-3.8c-0.3-2.4,0.3-4.8,1.4-6.9c2.1-4.1,5.5-6.6,10-7.4c6.7-1.2,13.3,3,15.3,9.4c0.9,2.9,0.7,5.8-0.3,8.6
				c-1.4,4.1-3.3,7.9-5.3,11.7c-2.3,4.2-4.7,8.3-7.2,12.4C694.5,1005.6,694.4,1005.7,694.3,1005.9z M694.3,982.9c3.3,0,6-2.7,6-5.9
				c0-3.3-2.7-6-6-6.1c-3.3,0-6,2.7-6,6C688.3,980.2,691,982.9,694.3,982.9z"/>
		</g>
	</g>
</g>
</svg>
