<?xml version="1.0" encoding="utf-8"?>
<!-- Generator: Adobe Illustrator 23.1.0, SVG Export Plug-In . SVG Version: 6.00 Build 0)  -->
<svg version="1.1" id="Livello_1" xmlns="http://www.w3.org/2000/svg" xmlns:xlink="http://www.w3.org/1999/xlink" x="0px" y="0px"
	 viewBox="0 0 595.3 595.3" style="enable-background:new 0 0 595.3 595.3;" xml:space="preserve">
<style type="text/css">
	.st0{fill:#2B170D;}
</style>
<g>
	<g>
		<path class="st0" d="M298.5,91c68.5,0,136.9,0,205.4,0c33.3,0,59.2,18.2,69.3,49.5c2.7,8.3,3.8,17.6,3.9,26.4
			c0.3,86.4,0,172.8,0.2,259.1c0.1,40.4-25.3,66.1-50.5,73.1c-7.2,2-14.8,3-22.2,3c-103.8,0.2-207.7,0.1-311.5,0.1
			c-33.8,0-67.6,0.1-101.4,0.1c-21.5,0-39.9-7.6-54.4-24.6c-12.2-14.3-17.8-31.2-17.8-50.3c0-60.2,0-120.3,0-180.5
			c0-26.8-0.2-53.6,0-80.3c0.3-43.8,29.4-75,71-75.5c39.9-0.5,79.8-0.1,119.7-0.1C239.6,91,269.1,91,298.5,91L298.5,91z M72.6,123
			c-0.1,0.8-0.2,1.6-0.2,2.4c3.5,3,6.9,6,10.4,9.1c70.5,61.1,141,122.1,211.3,183.4c3.5,3,5.3,2.8,8.6-0.1
			c68-59.1,136.1-118,204.1-177c5.9-5.1,11.7-10.3,18-15.8c-6.6-4.3-13.3-4.6-20.1-4.6c-87.8,0-175.6,0-263.5,0
			c-50,0-100-0.1-150,0.2C85.1,120.5,78.9,122.1,72.6,123z M524.7,469.9c0.1-0.9,0.3-1.9,0.4-2.8c-0.9-0.6-1.9-1.1-2.7-1.8
			c-52.5-52-105-104-157.5-156.1c-3-3-5-3.1-8.2-0.3c-15.6,13.8-31.4,27.4-47.1,41c-7.9,6.9-14.5,7.1-22,0.5
			c-15.6-13.5-31.3-26.9-46.7-40.7c-4.1-3.7-6.3-3.5-10.1,0.3c-51.6,51.4-103.4,102.6-155.1,153.9c-1.3,1.3-2.4,2.7-4.8,5.4
			c6.2,1.3,10.8,2.9,15.5,3.2c9.2,0.5,18.5,0.2,27.7,0.2c96.2,0,192.3,0,288.5,0c34.8,0,69.7,0.1,104.5-0.2
			C513,472.5,518.8,470.8,524.7,469.9z M52.3,146.3c-0.7,0-1.5,0.1-2.2,0.1c-0.9,6.6-2.5,13.1-2.6,19.7
			c-0.2,64.8-0.2,129.5-0.2,194.3c0,22.7,0,45.5,0.1,68.2c0,6.4,0.8,12.6,4.2,18.8c54.5-54,108.3-107.4,162.4-161
			C159.6,239.2,106,192.7,52.3,146.3z M544.9,145.8c-54.2,46.9-108,93.6-162.2,140.6c54.4,53.9,108.2,107.2,162,160.5
			c0.7-0.2,1.4-0.3,2-0.5c0.8-6.6,2.4-13.2,2.4-19.8c0.2-53.9,0.1-107.8,0.2-161.8c0-33,0-66,0-99
			C549.3,159.1,548.6,152.4,544.9,145.8z"/>
		<path class="st0" d="M91.7,518.8c-26.7,0-48.9-10.1-66-30c-14.5-16.9-21.8-37.6-21.8-61.4c0-33.6,0-67.2,0-100.7
			c0-26.6,0-53.2,0-79.7c0-8.8,0-17.7,0-26.5c0-17.7-0.1-35.9,0-53.9c0.2-25.5,8.9-48.8,24.5-65.5C44.1,84.4,66.1,75,90.3,74.7
			c27.8-0.3,56-0.3,83.2-0.2c12.2,0,24.4,0.1,36.7,0.1H272h86.2c48.6,0,97.1,0,145.7,0c40.5,0,71.9,22.7,84.1,60.7
			c3,9.5,4.7,20.4,4.7,31.7c0.1,44.4,0.1,89.6,0.1,133.3c0,41.3,0,83.9,0.1,125.9c0.1,22.5-6.6,43-19.2,59.5
			c-11.1,14.5-26.4,25-42.9,29.6c-8.4,2.3-17.4,3.6-26.1,3.6c-78.5,0.1-158.2,0.1-235.4,0.1c-25.4,0-50.8,0-76.2,0
			c-22.4,0-44.8,0-67.2,0L91.7,518.8L91.7,518.8z M541.4,464.6l-1.6,9.9c4.2-3.3,8.1-7.4,11.4-12.2L541.4,464.6z M236.4,327.2
			c-37.2,37.1-75,74.5-111.7,110.8c-6.1,6.1-12.3,12.2-18.4,18.2c0.2,0,0.5,0,0.7,0c2.4,0,4.7,0,7.1,0c96.2,0,192.3,0,288.5,0
			c8.3,0,16.5,0,24.8,0c20.7,0,41.9,0,63-0.1c-42.9-42.5-86.8-85.9-130-129c-8.8,7.8-17.7,15.5-26.4,23c-4.8,4.1-9.5,8.3-14.3,12.4
			c-13.7,11.9-28.6,12.1-42,0.5c-3.8-3.3-7.7-6.6-11.5-9.9C256.4,344.7,246.3,336,236.4,327.2z M63.2,177.1
			c-0.1,48.9-0.1,98.3-0.1,146.3v36.9c0,15.8,0,34,0,53l127.2-126.1L63.2,177.1z M406.5,287.2l127.1,125.9
			c0.1-39.2,0.1-78.7,0.1-117.2v-31.1c0-20.6,0-41.1,0-61.7v-26.2L406.5,287.2z M296.3,336.4c0.5,0.4,0.9,0.8,1.4,1.2
			c0.3,0.2,0.5,0.4,0.7,0.6c0.4-0.2,0.8-0.6,1.4-1.1c0.3-0.2,0.5-0.5,0.8-0.7C299.1,336.6,297.6,336.6,296.3,336.4z M110.3,136.9
			l19.1,16.6c55.4,48,112.7,97.6,169,146.7c51.5-44.7,103.7-90,154.3-133.8l34-29.5h-93.6c-50.6,0-101.1,0-151.7,0h-26.1
			C180.8,136.8,145.4,136.8,110.3,136.9z M235.2,288.1l-2.8,2.8c1.9-0.4,3.9-0.5,5.8-0.2C237.2,289.8,236.2,288.9,235.2,288.1z
			 M360.8,290.2c1.1,0,2.1,0.1,3.2,0.3l-2.4-2.4c-0.9,0.7-1.7,1.5-2.6,2.2C359.6,290.2,360.2,290.2,360.8,290.2z M57.3,118.3
			c-4.4,3.3-8.2,7.2-11.4,11.8l10.3-0.5L57.3,118.3z"/>
	</g>
</g>
</svg>
