<?xml version="1.0" encoding="utf-8"?>
<!-- Generator: Adobe Illustrator 23.1.0, SVG Export Plug-In . SVG Version: 6.00 Build 0)  -->
<svg version="1.1" id="Livello_1" xmlns="http://www.w3.org/2000/svg" xmlns:xlink="http://www.w3.org/1999/xlink" x="0px" y="0px"
	 viewBox="0 0 595.3 595.3" style="enable-background:new 0 0 595.3 595.3;" xml:space="preserve">
<style type="text/css">
	.st0{fill:#2B170D;}
</style>
<g>
	<g>
		<path class="st0" d="M455.1,107.7c-19.3,0-34.9,15.6-34.9,34.9s15.6,34.9,34.9,34.9s34.9-15.6,34.9-34.9S474.4,107.7,455.1,107.7z
			"/>
		<path class="st0" d="M299.9,152.4c-80.8,0-146.6,65.8-146.6,146.6s65.8,146.6,146.6,146.6S446.5,379.8,446.5,299
			S380.8,152.4,299.9,152.4z M299.9,392.9c-51.8,0-93.9-42.1-93.9-93.9s42.1-93.9,93.9-93.9s93.9,42.1,93.9,93.9
			S351.7,392.9,299.9,392.9z"/>
		<path class="st0" d="M416.3,596.7H178.7c-98.6,0-178.8-80.2-178.8-178.8V180.2C-0.1,81.6,80.1,1.4,178.7,1.4h237.7
			c98.6,0,178.8,80.2,178.8,178.8v237.7C595.1,516.5,514.9,596.7,416.3,596.7z M178.7,57.4c-67.7,0-122.8,55.1-122.8,122.8v237.7
			c0,67.7,55.1,122.8,122.8,122.8h237.7c67.7,0,122.8-55.1,122.8-122.8V180.2c0-67.7-55.1-122.8-122.8-122.8
			C416.4,57.4,178.7,57.4,178.7,57.4z"/>
	</g>
</g>
</svg>
