<?xml version="1.0" encoding="utf-8"?>
<!-- Generator: Adobe Illustrator 23.1.0, SVG Export Plug-In . SVG Version: 6.00 Build 0)  -->
<svg version="1.1" id="Livello_1" xmlns="http://www.w3.org/2000/svg" xmlns:xlink="http://www.w3.org/1999/xlink" x="0px" y="0px"
	 viewBox="0 0 180 180" style="enable-background:new 0 0 180 180;" xml:space="preserve">
<style type="text/css">
	.st0{fill:#9B6C46;}
	.st1{fill:#EDC396;}
</style>
<g>
	<g>
		<g>
			<g>
				<g>
					<g>
						<path class="st0" d="M145,74.9c-3.2-1.9-6.9-3.1-10.9-3.3c-12.7-0.5-23.4,9.5-23.9,22.4c-0.2,4.8,1.1,9.4,3.5,13.2L145,74.9z"
							/>
					</g>
				</g>
				<g>
					<g>
						<path class="st0" d="M112.8,62.8c0-9.4-7.2-17-16.4-17.6v35.1C105.6,79.8,112.8,72.2,112.8,62.8z"/>
					</g>
				</g>
				<g>
					<g>
						<circle class="st0" cx="136.8" cy="51.8" r="9"/>
					</g>
				</g>
			</g>
		</g>
	</g>
	<g>
		<path class="st0" d="M97.6,133.9"/>
	</g>
	<g>
		<g>
			<g>
				<path class="st1" d="M96.3,179C43.2,179,0,139.1,0,90S43.2,0.9,96.3,0.9c10.3,0,20.5,1.5,30.3,4.5c3,0.9,4.7,4.1,3.8,7.2
					c-0.9,3-4.1,4.7-7.2,3.8c-8.6-2.6-17.7-4-26.9-4c-46.8,0-84.8,34.8-84.8,77.6s38.1,77.6,84.8,77.6c9.1,0,18.1-1.3,26.6-3.9
					c3-0.9,6.2,0.8,7.2,3.8c0.9,3-0.8,6.2-3.8,7.2C116.6,177.5,106.5,179,96.3,179z"/>
			</g>
			<path class="st1" d="M140.4,92l38.1-41.4c2.1-2.3,2-6-0.3-8.1c-2.3-2.1-6-2-8.1,0.3L103.6,115V46.6c0-3.2-2.6-5.7-5.7-5.7
				c-3.2,0-5.7,2.6-5.7,5.7l0,90.2c0,2.7,3.3,3.9,5.1,2l35.4-38.4l37.3,37.5c1.1,1.1,2.6,1.7,4.1,1.7c1.5,0,2.9-0.6,4.1-1.7
				c2.2-2.2,2.3-5.9,0-8.1L140.4,92z"/>
		</g>
	</g>
</g>
</svg>
