<?xml version="1.0" encoding="utf-8"?>
<!-- Generator: Adobe Illustrator 23.1.0, SVG Export Plug-In . SVG Version: 6.00 Build 0)  -->
<svg version="1.1" id="Livello_1" xmlns="http://www.w3.org/2000/svg" xmlns:xlink="http://www.w3.org/1999/xlink" x="0px" y="0px"
	 viewBox="0 0 16 16" style="enable-background:new 0 0 16 16;" xml:space="preserve">
<style type="text/css">
	.st0{fill:#9B6C46;}
	.st1{fill:#EDC396;}
</style>
<g>
	<g>
		<g>
			<g>
				<g>
					<g>
						<path class="st0" d="M12.9,6.6c-0.3-0.2-0.6-0.3-1-0.3c-1.1,0-2.1,0.8-2.1,2c0,0.4,0.1,0.8,0.3,1.2L12.9,6.6z"/>
					</g>
				</g>
				<g>
					<g>
						<path class="st0" d="M10,5.5C10,4.7,9.4,4,8.6,4v3.1C9.4,7.1,10,6.4,10,5.5z"/>
					</g>
				</g>
				<g>
					<g>
						<circle class="st0" cx="12.2" cy="4.6" r="0.8"/>
					</g>
				</g>
			</g>
		</g>
	</g>
	<g>
		<path class="st0" d="M8.7,11.9"/>
	</g>
	<g>
		<g>
			<g>
				<path class="st1" d="M8.5,15.9C3.8,15.9,0,12.3,0,8S3.8,0,8.5,0c0.9,0,1.8,0.1,2.7,0.4c0.3,0.1,0.4,0.4,0.3,0.6
					s-0.4,0.4-0.6,0.3c-0.8-0.2-1.6-0.4-2.4-0.4C4.4,1.1,1,4.2,1,8s3.4,6.9,7.5,6.9c0.8,0,1.6-0.1,2.4-0.3c0.3-0.1,0.6,0.1,0.6,0.3
					c0.1,0.3-0.1,0.6-0.3,0.6C10.4,15.7,9.5,15.9,8.5,15.9z"/>
			</g>
			<path class="st1" d="M12.5,8.1l3.4-3.7c0.2-0.2,0.2-0.5,0-0.7c-0.2-0.2-0.5-0.2-0.7,0l-5.9,6.4V4.1c0-0.3-0.2-0.5-0.5-0.5
				S8.2,3.8,8.2,4.1l0,8c0,0.2,0.3,0.3,0.5,0.2l3.1-3.4l3.3,3.3c0.1,0.1,0.2,0.2,0.4,0.2c0.1,0,0.3,0,0.4-0.1c0.2-0.2,0.2-0.5,0-0.7
				L12.5,8.1z"/>
		</g>
	</g>
</g>
</svg>
