<?xml version="1.0" encoding="utf-8"?>
<!-- Generator: Adobe Illustrator 23.1.0, SVG Export Plug-In . SVG Version: 6.00 Build 0)  -->
<svg version="1.1" id="Livello_1" xmlns="http://www.w3.org/2000/svg" xmlns:xlink="http://www.w3.org/1999/xlink" x="0px" y="0px"
	 viewBox="0 0 32 32" style="enable-background:new 0 0 32 32;" xml:space="preserve">
<style type="text/css">
	.st0{fill:#9B6C46;}
	.st1{fill:#EDC396;}
</style>
<g>
	<g>
		<g>
			<g>
				<g>
					<g>
						<path class="st0" d="M25.8,13.3c-0.6-0.3-1.2-0.6-1.9-0.6c-2.3-0.1-4.2,1.7-4.2,4c0,0.9,0.2,1.7,0.6,2.3L25.8,13.3z"/>
					</g>
				</g>
				<g>
					<g>
						<path class="st0" d="M20,11.1c0-1.7-1.3-3-2.9-3.1v6.2C18.8,14.2,20,12.8,20,11.1z"/>
					</g>
				</g>
				<g>
					<g>
						<circle class="st0" cx="24.3" cy="9.2" r="1.6"/>
					</g>
				</g>
			</g>
		</g>
	</g>
	<g>
		<path class="st0" d="M17.3,23.8"/>
	</g>
	<g>
		<g>
			<g>
				<path class="st1" d="M17.1,31.8C7.7,31.8,0,24.7,0,16S7.7,0.1,17.1,0.1c1.8,0,3.6,0.3,5.4,0.8c0.5,0.2,0.8,0.7,0.7,1.3
					S22.4,3,21.9,2.9c-1.5-0.5-3.1-0.7-4.8-0.7C8.8,2.2,2,8.4,2,16s6.8,13.8,15.1,13.8c1.6,0,3.2-0.2,4.7-0.7
					c0.5-0.2,1.1,0.1,1.3,0.7c0.2,0.5-0.1,1.1-0.7,1.3C20.7,31.5,18.9,31.8,17.1,31.8z"/>
			</g>
			<path class="st1" d="M24.9,16.3L31.7,9c0.4-0.4,0.4-1.1-0.1-1.4c-0.4-0.4-1.1-0.4-1.4,0.1L18.4,20.4V8.3c0-0.6-0.5-1-1-1
				s-1,0.5-1,1l0,16c0,0.5,0.6,0.7,0.9,0.3l6.3-6.8l6.6,6.7c0.2,0.2,0.5,0.3,0.7,0.3c0.3,0,0.5-0.1,0.7-0.3c0.4-0.4,0.4-1,0-1.4
				L24.9,16.3z"/>
		</g>
	</g>
</g>
</svg>
