<?xml version="1.0" encoding="utf-8"?>
<!-- Generator: Adobe Illustrator 23.1.0, SVG Export Plug-In . SVG Version: 6.00 Build 0)  -->
<svg version="1.1" id="Livello_1" xmlns="http://www.w3.org/2000/svg" xmlns:xlink="http://www.w3.org/1999/xlink" x="0px" y="0px"
	 viewBox="0 0 595.28 595.28" style="enable-background:new 0 0 595.28 595.28;" xml:space="preserve">
<style type="text/css">
	.st0{fill:#ECC295;}
</style>
<g>
	<path class="st0" d="M-0.51,151.88C1.78,112.05,15.45,77.9,41.84,48.97C53.3,36.41,65.68,24.68,77.77,12.7
		c11.5-11.39,24.16-12.57,35.8-1.18c35.22,34.48,70.25,69.18,104.64,104.49c11.24,11.53,9.23,24.69-1.88,36.03
		c-15.6,15.93-31.29,31.79-47.2,47.42c-33.89,33.3-35.5,54.54-7.13,91.78c44.45,58.36,97.18,108.16,156.25,151.38
		c24.95,18.26,50.62,16.78,73.33-4.87c17.41-16.6,33.73-34.33,50.73-51.35c17.47-17.48,27.77-18.26,44.89-1.54
		c32.74,32,65.03,64.47,97.07,97.16c14.35,14.65,13.71,26.19-0.15,41.28c-32.87,35.79-69.11,67.97-120.62,67.58
		c-28.61-0.22-58.45-6.2-85.48-15.88C269.54,536.13,183.6,465.21,110.79,377.78C66.98,325.17,31.45,267.16,10.53,201.35
		C5.43,185.31,3.1,168.39-0.51,151.88z"/>
</g>
</svg>
