<?xml version="1.0" encoding="utf-8"?>
<!-- Generator: Adobe Illustrator 23.1.0, SVG Export Plug-In . SVG Version: 6.00 Build 0)  -->
<svg version="1.1" id="Livello_1" xmlns="http://www.w3.org/2000/svg" xmlns:xlink="http://www.w3.org/1999/xlink" x="0px" y="0px"
	 viewBox="0 0 595.28 595.28" style="enable-background:new 0 0 595.28 595.28;" xml:space="preserve">
<style type="text/css">
	.st0{fill:#ECC295;}
</style>
<g>
	<path class="st0" d="M386.75,249.75c4.65-5.34,4.13-10.87,4.65-15.92c7.78-74.24,15.59-148.47,22.95-222.75
		c0.93-9.35,3.97-11.38,13.21-10.29c42.82,5.06,85.72,9.57,128.65,13.53c8.61,0.79,10.13,3.79,9.29,11.46
		c-9.01,82.42-17.86,164.86-26.61,247.3c-4.33,40.82-8.44,81.67-12.46,122.53c-0.58,5.89-2.01,11.33-4.4,16.69
		c-25.99,58.28-52.06,116.53-77.65,174.99c-3.28,7.5-6.53,9.69-14.74,7.93c-117.88-25.31-235.82-50.34-353.79-75.25
		c-7.91-1.67-11.37-5.21-13.07-13.51c-10.77-52.76-22.05-105.42-33.75-157.98c-1.95-8.75,1.98-9.36,8.48-10.73
		c64.04-13.54,127.98-27.56,192.07-40.9c8.43-1.75,10.65-3.86,8.71-12.74c-14.22-65.17-27.85-130.47-41.66-195.73
		c-3.32-15.68-3.27-15.58,12.18-18.87c40.12-8.53,80.29-16.82,120.26-26.02c9.63-2.22,13.18,0.02,15.09,9.35
		c13.21,64.53,26.77,128.98,40.26,193.45C384.6,247.02,385.31,247.63,386.75,249.75z M362.16,378.32
		c-0.63,14.48,8.57,23.34,25.23,24.28c12.86,0.72,23.2-9.83,24.1-24.58c0.8-13.14-10.62-24.88-24.82-25.53
		C373.95,351.92,362.8,363.67,362.16,378.32z M256.26,361.88c-0.27,16.16,8.26,24.62,25.33,25.12c13.38,0.39,24.24-10.19,24.6-23.97
		c0.33-12.55-11.07-23.91-24.52-24.43C265.48,337.97,256.53,346.17,256.26,361.88z"/>
</g>
</svg>
