<?xml version="1.0" encoding="utf-8"?>
<!-- Generator: Adobe Illustrator 23.1.0, SVG Export Plug-In . SVG Version: 6.00 Build 0)  -->
<svg version="1.1" id="Livello_1" xmlns="http://www.w3.org/2000/svg" xmlns:xlink="http://www.w3.org/1999/xlink" x="0px" y="0px"
	 viewBox="0 0 595.3 595.3" style="enable-background:new 0 0 595.3 595.3;" xml:space="preserve">
<style type="text/css">
	.st0{fill:#ECC295;}
</style>
<g>
	<path class="st0" d="M297.6,93.6c73.1,0,146.1,0,219.2,0c35.5,0,63.2,18.4,73.9,50.2c2.9,8.5,4.1,17.8,4.1,26.8
		c0.3,87.6,0,175.1,0.3,262.7c0.1,41-27,67-53.8,74.1c-7.6,2-15.8,3.1-23.7,3.1c-110.8,0.2-221.6,0.1-332.4,0.1
		c-36.1,0-72.1,0.1-108.2,0.1c-22.9,0-42.6-7.7-58.1-24.9c-13.1-14.5-19-31.7-19-51c0-61,0-121.9,0-182.9c0-27.1-0.2-54.3,0-81.4
		c0.3-44.4,31.3-76,75.7-76.5c42.6-0.5,85.1-0.1,127.7-0.1C234.8,93.7,266.2,93.7,297.6,93.6C297.6,93.6,297.6,93.6,297.6,93.6z
		 M55.8,128.1c4.2,3.5,7.8,6.5,11.5,9.5c75.2,61.9,150.4,123.8,225.5,185.9c3.9,3.2,6,2.8,9.7-0.2c72.4-59.7,144.9-119.4,217.4-179
		c6.4-5.2,12.7-10.6,19.6-16.4c-7.6-3.9-14.7-4.5-21.9-4.5c-103.4,0-206.8,0-310.1,0c-43.9,0-87.8,0-131.6,0
		C69,123.5,62.4,124,55.8,128.1z M539,477.7c0.2-0.9,0.3-1.9,0.5-2.8c-1-0.6-2-1.1-2.8-1.8c-56-52.7-112.1-105.4-168-158.3
		c-3.2-3.1-5.3-3.2-8.7-0.3c-16.6,14-33.5,27.7-50.3,41.6c-8.4,7-15.5,7.2-23.5,0.5c-16.6-13.7-33.4-27.2-49.8-41.2
		c-4.3-3.7-6.7-3.6-10.8,0.3c-55.1,52.1-110.3,104-165.5,156c-1.4,1.3-2.6,2.8-5.2,5.5c6.6,1.3,11.5,2.9,16.6,3.2
		c9.8,0.5,19.7,0.2,29.5,0.2c102.6,0,205.2,0,307.8,0c37.2,0,74.4,0.1,111.5-0.2C526.5,480.4,532.7,478.6,539,477.7z M34.4,149.2
		c-4,6.8-4.7,13.5-4.7,20.4c0,53.5,0,107.1,0,160.6c0,35,0,69.9,0.1,104.9c0,6.7,0.8,13.2,4.6,19.7c58-54.6,115.4-108.7,173.2-163.1
		C149.5,244,92.2,196.9,34.4,149.2z M560.1,454.2c0.8,0,1.6-0.1,2.3-0.1c0.9-6.6,2.6-13.3,2.7-19.9c0.2-54.8,0.2-109.7,0.2-164.5
		c0-33.5,0-66.9,0-100.4c0-6.8-0.8-13.5-4.6-20c-57.9,47.7-115.2,94.8-173.1,142.5C445.4,346.2,502.8,400.2,560.1,454.2z"/>
</g>
</svg>
