<?xml version="1.0" encoding="UTF-8" standalone="no"?>
<!-- Generator: Adobe Illustrator 23.1.0, SVG Export Plug-In . SVG Version: 6.00 Build 0)  -->

<svg
   version="1.1"
   id="Livello_1"
   x="0px"
   y="0px"
   viewBox="0 0 431.46 156.39999"
   xml:space="preserve"
   sodipodi:docname="logo positivo.svg"
   width="431.45999"
   height="156.39999"
   inkscape:version="1.3 (0e150ed, 2023-07-21)"
   xmlns:inkscape="http://www.inkscape.org/namespaces/inkscape"
   xmlns:sodipodi="http://sodipodi.sourceforge.net/DTD/sodipodi-0.dtd"
   xmlns="http://www.w3.org/2000/svg"
   xmlns:svg="http://www.w3.org/2000/svg"><defs
   id="defs24" /><sodipodi:namedview
   id="namedview24"
   pagecolor="#ffffff"
   bordercolor="#000000"
   borderopacity="0.25"
   inkscape:showpageshadow="2"
   inkscape:pageopacity="0.0"
   inkscape:pagecheckerboard="0"
   inkscape:deskcolor="#d1d1d1"
   inkscape:zoom="1.1683168"
   inkscape:cx="241.37288"
   inkscape:cy="201.57203"
   inkscape:window-width="1312"
   inkscape:window-height="794"
   inkscape:window-x="0"
   inkscape:window-y="38"
   inkscape:window-maximized="0"
   inkscape:current-layer="Livello_1" />&#10;<style
   type="text/css"
   id="style1">&#10;	.st0{fill:#EDC396;}&#10;	.st1{fill:none;stroke:#000000;stroke-width:8;stroke-linecap:round;stroke-linejoin:round;stroke-miterlimit:10;}&#10;	.st2{fill:#2A170D;}&#10;</style>&#10;<g
   id="g24"
   transform="translate(-28.6,-22.6)">&#10;	<g
   id="g10">&#10;		<g
   id="g9">&#10;			<g
   id="g8">&#10;				<g
   id="g7">&#10;					<g
   id="g2">&#10;						<g
   id="g1">&#10;							<path
   class="st0"
   d="m 333.5,87.6 c -2.8,-1.7 -6.1,-2.7 -9.6,-2.9 -11.2,-0.4 -20.5,8.4 -20.9,19.6 -0.2,4.3 1,8.2 3.1,11.6 z"
   id="path1" />&#10;						</g>&#10;					</g>&#10;					<g
   id="g4">&#10;						<g
   id="g3">&#10;							<path
   class="st0"
   d="m 305.3,77 c 0,-8.2 -6.3,-14.9 -14.4,-15.4 V 92.4 C 299,91.9 305.3,85.2 305.3,77 Z"
   id="path2" />&#10;						</g>&#10;					</g>&#10;					<g
   id="g6">&#10;						<g
   id="g5">&#10;							<circle
   class="st0"
   cx="326.39999"
   cy="67.300003"
   r="7.9000001"
   id="circle4" />&#10;						</g>&#10;					</g>&#10;				</g>&#10;			</g>&#10;		</g>&#10;	</g>&#10;	<g
   id="g11">&#10;		<path
   class="st1"
   d="M 291.9,139.4"
   id="path10" />&#10;	</g>&#10;	<g
   id="g14">&#10;		<g
   id="g13">&#10;			<g
   id="g12">&#10;				<path
   class="st2"
   d="m 290.8,179 c -46.6,0 -84.6,-35.1 -84.6,-78.2 0,-43.1 37.9,-78.2 84.6,-78.2 9.1,0 18,1.3 26.6,3.9 2.7,0.8 4.2,3.6 3.3,6.3 -0.9,2.7 -3.6,4.2 -6.3,3.3 -7.6,-2.3 -15.5,-3.5 -23.6,-3.5 -41.1,0 -74.5,30.6 -74.5,68.1 0,37.5 33.4,68.1 74.5,68.1 8,0 15.9,-1.2 23.4,-3.4 2.7,-0.8 5.5,0.7 6.3,3.4 0.8,2.7 -0.7,5.5 -3.4,6.3 -8.5,2.6 -17.3,3.9 -26.3,3.9 z"
   id="path11" />&#10;			</g>&#10;			<path
   class="st2"
   d="M 329.5,102.6 363,66.3 c 1.9,-2 1.8,-5.2 -0.3,-7.1 -2,-1.9 -5.2,-1.8 -7.1,0.3 l -58.4,63.4 v -60 c 0,-2.8 -2.3,-5 -5,-5 -2.8,0 -5,2.3 -5,5 v 79.2 c 0,2.3 2.9,3.5 4.5,1.7 l 31.1,-33.7 32.8,32.9 c 1,1 2.3,1.5 3.6,1.5 1.3,0 2.6,-0.5 3.6,-1.5 2,-2 2,-5.2 0,-7.1 z"
   id="path12" />&#10;		</g>&#10;	</g>&#10;	<g
   id="g15">&#10;		<path
   class="st2"
   d="m 65.3,118.6 c 1.3,0 2.5,0.5 3.5,1.5 1,1 1.5,2.2 1.5,3.5 0,1.4 -0.5,2.6 -1.5,3.5 -1,1 -2.2,1.4 -3.5,1.4 H 33.7 c -1.4,0 -2.6,-0.5 -3.6,-1.4 -1,-1 -1.5,-2.1 -1.5,-3.5 V 72.3 c 0,-1.4 0.5,-2.6 1.5,-3.5 1,-1 2.2,-1.4 3.5,-1.4 1.4,-0.1 2.6,0.4 3.5,1.4 1,1 1.4,2.2 1.4,3.6 l 0.1,46.2 z"
   id="path14" />&#10;		<path
   class="st2"
   d="m 159.8,67.4 c 1.4,0 2.6,0.5 3.5,1.4 1,1 1.4,2.1 1.4,3.5 V 101 c 0,4.2 -0.7,8.1 -2.1,11.6 -1.4,3.5 -3.3,6.4 -5.7,8.8 -2.4,2.4 -5.2,4.3 -8.3,5.6 -3.2,1.3 -6.6,2 -10.2,2 -3.6,0 -7,-0.7 -10.2,-2 -3.2,-1.3 -6,-3.2 -8.4,-5.6 -2.4,-2.4 -4.3,-5.3 -5.7,-8.8 -1.4,-3.5 -2.1,-7.3 -2.1,-11.6 V 72.3 c 0,-1.4 0.5,-2.6 1.5,-3.5 1,-1 2.2,-1.4 3.5,-1.4 1.4,0 2.6,0.5 3.5,1.4 0.9,0.9 1.4,2.1 1.4,3.5 V 101 c 0,2.7 0.4,5.1 1.3,7.3 0.8,2.2 2,4.1 3.5,5.7 1.5,1.6 3.2,2.8 5.2,3.7 2,0.9 4.1,1.3 6.4,1.3 2.3,0 4.4,-0.4 6.4,-1.3 2,-0.9 3.7,-2.1 5.2,-3.7 1.5,-1.6 2.6,-3.5 3.5,-5.7 0.8,-2.2 1.3,-4.7 1.3,-7.3 V 72.3 c 0,-1.4 0.5,-2.6 1.5,-3.5 1.1,-0.9 2.2,-1.4 3.6,-1.4 z"
   id="path15" />&#10;	</g>&#10;	<g
   id="g16">&#10;		<path
   class="st2"
   d="m 457.9,68.2 c 1.2,0.8 1.9,1.9 2.1,3.2 0.2,1.3 -0.1,2.6 -0.9,3.8 l -21.4,30.4 -0.2,18.5 c -0.1,1.3 -0.6,2.5 -1.6,3.4 -1,1 -2.2,1.4 -3.5,1.4 -1.4,0 -2.6,-0.5 -3.5,-1.5 -1,-1 -1.4,-2.2 -1.4,-3.6 l 0.3,-18.3 -21.4,-30.4 c -0.8,-1.2 -1.1,-2.4 -0.9,-3.8 0.2,-1.4 0.9,-2.4 2.1,-3.2 1.2,-0.8 2.4,-1.1 3.8,-0.9 1.3,0.2 2.4,0.9 3.2,2.1 l 18.1,25.9 18.2,-25.9 c 0.8,-1.2 1.9,-1.9 3.2,-2.1 1.5,-0.1 2.7,0.2 3.8,1 z"
   id="path16" />&#10;	</g>&#10;	<g
   id="g23">&#10;		<g
   id="g22">&#10;			<g
   id="g17">&#10;				<path
   class="st0"
   d="m 47.2,159.9 c -0.4,-1 -1,-1.8 -1.7,-2.6 -0.7,-0.8 -1.6,-1.3 -2.6,-1.8 -1,-0.4 -2,-0.6 -3.1,-0.6 H 31 c -0.6,0 -1.2,0.2 -1.7,0.7 -0.5,0.5 -0.7,1 -0.7,1.7 v 19 c 0,0.6 0.2,1.2 0.7,1.6 0.5,0.5 1,0.7 1.7,0.7 0.7,0 1.2,-0.2 1.7,-0.7 0.5,-0.5 0.7,-1 0.7,-1.6 v -5.5 h 6.5 c 1.1,0 2.1,-0.2 3.1,-0.6 1,-0.4 1.8,-1 2.5,-1.7 0.7,-0.7 1.3,-1.5 1.7,-2.5 0.4,-1 0.6,-2 0.7,-3.1 -0.1,-1 -0.3,-2 -0.7,-3 z m -7.4,6.2 h -6.5 v -6.4 h 6.5 c 0.9,0 1.7,0.3 2.3,0.9 0.6,0.7 0.9,1.4 0.9,2.3 0,0.4 -0.1,0.9 -0.3,1.2 -0.2,0.4 -0.4,0.7 -0.7,1 -0.3,0.3 -0.6,0.5 -1,0.7 -0.3,0.2 -0.7,0.3 -1.2,0.3 z"
   id="path17" />&#10;			</g>&#10;			<g
   id="g18">&#10;				<path
   class="st0"
   d="m 77.5,174.5 c 0.5,0.5 0.7,1 0.7,1.6 0,0.7 -0.2,1.2 -0.7,1.7 -0.5,0.4 -1,0.7 -1.6,0.7 h -7.5 c -0.6,0 -1.2,-0.2 -1.6,-0.7 -0.5,-0.4 -0.7,-1 -0.7,-1.7 0,-0.6 0.2,-1.2 0.7,-1.6 0.5,-0.5 1,-0.7 1.6,-0.7 h 1.4 v -14.1 h -1.4 c -0.7,0 -1.2,-0.2 -1.7,-0.7 -0.5,-0.5 -0.7,-1 -0.7,-1.6 0,-0.7 0.2,-1.2 0.7,-1.7 0.5,-0.5 1,-0.7 1.7,-0.7 h 7.5 c 0.7,0 1.2,0.2 1.7,0.7 0.5,0.5 0.7,1 0.7,1.7 0,0.6 -0.2,1.2 -0.7,1.6 -0.5,0.5 -1,0.7 -1.7,0.7 h -1.4 v 14.1 h 1.4 c 0.6,0 1.2,0.2 1.6,0.7 z"
   id="path18" />&#10;			</g>&#10;			<g
   id="g19">&#10;				<path
   class="st0"
   d="m 116.6,174.5 c 0.5,0.5 0.7,1 0.7,1.6 0,0.7 -0.2,1.2 -0.7,1.7 -0.5,0.5 -1,0.7 -1.7,0.7 H 99.4 c -0.5,0 -0.9,-0.1 -1.3,-0.4 -0.4,-0.2 -0.6,-0.6 -0.8,-1 -0.2,-0.4 -0.3,-0.9 -0.2,-1.3 0,-0.5 0.2,-0.9 0.5,-1.2 l 12.4,-15 H 99.6 c -0.6,0 -1.2,-0.2 -1.7,-0.7 -0.5,-0.5 -0.7,-1 -0.7,-1.7 0,-0.6 0.2,-1.2 0.7,-1.7 0.5,-0.5 1,-0.7 1.7,-0.7 h 15.3 c 0.5,0 0.9,0.1 1.3,0.4 0.4,0.2 0.7,0.6 0.9,1 0.2,0.4 0.3,0.8 0.2,1.3 -0.1,0.5 -0.2,0.9 -0.5,1.2 l -12.3,14.9 H 115 c 0.6,0.2 1.1,0.4 1.6,0.9 z"
   id="path19" />&#10;			</g>&#10;			<g
   id="g20">&#10;				<path
   class="st0"
   d="m 155.3,174.5 c 0.4,0.5 0.7,1 0.7,1.6 0,0.7 -0.2,1.2 -0.7,1.7 -0.5,0.5 -1,0.7 -1.7,0.7 h -15.5 c -0.5,0 -0.9,-0.1 -1.3,-0.4 -0.4,-0.2 -0.6,-0.6 -0.9,-1 -0.2,-0.4 -0.3,-0.9 -0.2,-1.3 0,-0.5 0.2,-0.9 0.5,-1.2 l 12.4,-15 h -10.3 c -0.6,0 -1.2,-0.2 -1.7,-0.7 -0.5,-0.5 -0.7,-1 -0.7,-1.7 0,-0.6 0.2,-1.2 0.7,-1.7 0.5,-0.5 1,-0.7 1.7,-0.7 h 15.3 c 0.5,0 0.9,0.1 1.3,0.4 0.4,0.2 0.7,0.6 0.9,1 0.2,0.4 0.3,0.8 0.2,1.3 -0.1,0.5 -0.2,0.9 -0.5,1.2 l -12.3,14.9 h 10.5 c 0.6,0.2 1.1,0.4 1.6,0.9 z"
   id="path20" />&#10;			</g>&#10;			<g
   id="g21">&#10;				<path
   class="st0"
   d="M 197.3,175.2 188,156.1 c -0.2,-0.4 -0.5,-0.7 -0.9,-1 -0.7,-0.5 -1.8,-0.5 -2.5,0 -0.4,0.2 -0.7,0.5 -0.9,1 l -9.3,19.1 c -0.3,0.6 -0.3,1.2 -0.1,1.8 0.2,0.6 0.6,1 1.2,1.3 0.6,0.3 1.2,0.3 1.8,0.1 0.6,-0.2 1,-0.6 1.3,-1.2 l 2.3,-4.8 h 9.7 l 2.3,4.8 c 0.3,0.6 0.7,1 1.3,1.2 0.3,0.1 0.5,0.1 0.8,0.1 0.3,0 0.7,-0.1 1,-0.3 0.6,-0.3 1,-0.8 1.2,-1.3 0.4,-0.5 0.4,-1.1 0.1,-1.7 z m -8.9,-7.4 h -5.1 l 2.6,-5.3 z"
   id="path21" />&#10;			</g>&#10;		</g>&#10;	</g>&#10;</g>&#10;</svg>
